<svg width="14.249023" height="18.000000" viewBox="0 0 14.249 18" fill="none" xmlns="http://www.w3.org/2000/svg" xmlns:xlink="http://www.w3.org/1999/xlink">
	<desc>
			Created with Pixso.
	</desc>
	<defs/>
	<path id="Vector" d="M4.5332 1.11475C5.06201 0.556152 5.74463 0.188965 6.49805 0.0537109C7.87061 -0.193848 9.33301 0.428711 10.1055 1.59131C10.5103 2.19482 10.6831 2.75 10.7129 3.52979L10.7354 4.04736L11.4702 4.04736C12.2769 4.04736 12.5015 4.08105 12.8389 4.26465C13.229 4.47119 13.5928 4.93213 13.7202 5.37842C13.7651 5.52832 14.249 15.3789 14.249 16.1025C14.249 16.3091 14.2266 16.564 14.1963 16.6689C14.0278 17.3027 13.4766 17.8198 12.8315 17.9551C12.5503 18.0151 1.69873 18.0151 1.41748 17.9551C0.776367 17.8198 0.217285 17.2949 0.0527344 16.6689C0.0224609 16.564 0 16.3091 0 16.1025C0 15.3789 0.483887 5.52832 0.528809 5.37842C0.65625 4.93213 1.02002 4.47119 1.40967 4.26465C1.74756 4.08105 1.96875 4.04736 2.78223 4.04736L3.5249 4.04736L3.5249 3.67627C3.5249 2.67871 3.86621 1.80859 4.5332 1.11475ZM9.25439 2.50977C8.93945 1.88379 8.30957 1.396 7.63086 1.25391C6.8208 1.08496 6.01855 1.3252 5.43359 1.90625C4.95361 2.38965 4.72852 2.95996 4.72461 3.69873L4.72461 4.04736L9.52441 4.04736L9.52441 3.69873C9.52441 3.2334 9.4458 2.89258 9.25439 2.50977ZM12.5127 5.56201C12.438 5.41211 12.333 5.32568 12.1602 5.26221C12.0518 5.22461 11.7705 5.21338 10.9492 5.2207C10.3604 5.22461 8.12549 5.23584 5.98096 5.24707L2.08105 5.26611L1.94629 5.35205C1.91064 5.37402 1.88037 5.38721 1.854 5.40625C1.67529 5.53223 1.66797 5.90137 1.43604 10.7368C1.30469 13.5039 1.20361 15.915 1.20752 16.1025C1.21875 16.4927 1.2749 16.5977 1.52246 16.7212C1.67236 16.7964 1.73633 16.7964 7.12451 16.7964C12.5127 16.7964 12.5767 16.7964 12.7266 16.7212C12.9702 16.6016 13.0303 16.4927 13.0415 16.1216C13.0454 15.9453 12.9438 13.5229 12.813 10.7368C12.6177 6.63818 12.5576 5.65234 12.5127 5.56201ZM3.7124 7.61719C3.53223 7.06201 3.57715 6.77686 3.86963 6.59717C4.0083 6.51465 4.30469 6.49561 4.43604 6.56348C4.63477 6.66455 4.7207 6.7959 4.8335 7.15576C4.89697 7.35449 5.00977 7.62451 5.08838 7.75586C5.25342 8.0293 5.65088 8.41943 5.93213 8.58447C6.65967 9.00439 7.57422 9.0083 8.31299 8.59961C8.87549 8.28809 9.31787 7.6958 9.48682 7.02832C9.56934 6.69434 9.77539 6.52197 10.0869 6.52197C10.4053 6.52197 10.6416 6.72461 10.6753 7.02441C10.7017 7.23438 10.5703 7.69971 10.3828 8.07471C9.86572 9.11328 8.93164 9.81055 7.77295 10.0317C7.37939 10.1069 6.63721 10.0845 6.28076 9.99072C5.55713 9.79541 5.10352 9.5332 4.57471 9.00049C4.12109 8.54297 3.89209 8.17578 3.7124 7.61719Z" fill="#FFFFFF" fill-opacity="1.000000" fill-rule="evenodd"/>
</svg>
