<svg width="16.000000" height="10.000000" viewBox="0 0 16 10" fill="none" xmlns="http://www.w3.org/2000/svg" xmlns:xlink="http://www.w3.org/1999/xlink">
	<desc>
			Created with Pixso.
	</desc>
	<defs/>
	<path id="Vector" d="M4.65381 0C5.11572 0 5.54248 0.0356445 5.93262 0.141602C6.28662 0.205566 6.62451 0.337891 6.92725 0.529785C7.21191 0.706543 7.4248 0.954102 7.56641 1.27197C7.70898 1.58984 7.77979 1.97949 7.77979 2.40283C7.77979 2.89795 7.67334 3.32129 7.4248 3.63916C7.21191 3.95801 6.85645 4.24023 6.43018 4.45215C7.03418 4.62939 7.49561 4.94727 7.77979 5.37061C8.06396 5.79492 8.2417 6.3252 8.2417 6.92578C8.2417 7.4209 8.13477 7.84424 7.95752 8.19775C7.77979 8.55127 7.49561 8.86914 7.17578 9.08154C6.82812 9.30859 6.44385 9.47607 6.03955 9.57568C5.61328 9.68213 5.18701 9.75293 4.76074 9.75293L0 9.75293L0 0L4.65381 0ZM4.36963 3.95703C4.76025 3.95703 5.08008 3.85156 5.32861 3.6748C5.57715 3.49854 5.68408 3.18018 5.68408 2.7915C5.68408 2.5791 5.64795 2.36719 5.57715 2.22656C5.50635 2.08496 5.39941 1.97852 5.25781 1.87305C5.11572 1.80225 4.97314 1.73145 4.79541 1.69629C4.61816 1.66064 4.44092 1.66064 4.22705 1.66064L2.16699 1.66064L2.16699 3.95801L4.37012 3.95801L4.36963 3.95703ZM4.47656 8.12695C4.68945 8.12695 4.90234 8.09131 5.08008 8.05664C5.25977 8.02246 5.4292 7.9502 5.57715 7.84424C5.72217 7.74072 5.84326 7.6084 5.93262 7.45557C6.00342 7.2793 6.07471 7.06689 6.07471 6.81982C6.07471 6.3252 5.93262 5.97119 5.64893 5.72412C5.36426 5.51221 4.97314 5.40625 4.51172 5.40625L2.16699 5.40625L2.16699 8.12793L4.47656 8.12793L4.47656 8.12695ZM11.333 8.09131C11.6167 8.37451 12.043 8.51562 12.6113 8.51562C13.002 8.51562 13.3574 8.41016 13.6416 8.2334C13.9258 8.02148 14.1035 7.80908 14.1743 7.59717L15.9155 7.59717C15.6309 8.44482 15.2046 9.0459 14.6367 9.43408C14.0674 9.7876 13.3931 10 12.5762 10C12.0532 10.0015 11.5352 9.90576 11.0483 9.71729C10.6104 9.55469 10.2197 9.2876 9.91113 8.93994C9.58154 8.61475 9.3374 8.21387 9.20117 7.77344C9.02344 7.31445 8.95215 6.81982 8.95215 6.25439C8.95215 5.72412 9.02344 5.22998 9.20117 4.77002C9.37207 4.32715 9.625 3.91992 9.94678 3.56836C10.2666 3.25049 10.6572 2.96875 11.0835 2.7915C11.5581 2.60303 12.0649 2.50684 12.5762 2.50879C13.1797 2.50879 13.7129 2.61523 14.1743 2.8623C14.6367 3.10938 14.9912 3.39209 15.2759 3.81641C15.5664 4.22412 15.7827 4.67822 15.9155 5.15918C15.9863 5.65332 16.0215 6.14844 15.9863 6.71338L10.835 6.71338C10.835 7.2793 11.0483 7.80908 11.333 8.09229L11.333 8.09131ZM13.5708 4.38135C13.3223 4.13428 12.9312 3.99268 12.4692 3.99268C12.1499 3.99268 11.9004 4.06348 11.6875 4.16943C11.4746 4.27588 11.333 4.41699 11.1904 4.55859C11.0596 4.69531 10.9731 4.86719 10.9419 5.05273C10.9058 5.22998 10.8706 5.37061 10.8706 5.51221L14.0674 5.51221C13.9966 4.98193 13.8193 4.62939 13.5708 4.38135ZM10.4443 0.671387L14.4229 0.671387L14.4229 1.62549L10.4448 1.62549L10.4448 0.671387L10.4443 0.671387Z" fill="#E21A43" fill-opacity="1.000000" fill-rule="nonzero"/>
</svg>
