<svg width="34.000000" height="24.000000" viewBox="0 0 34 24" fill="none" xmlns="http://www.w3.org/2000/svg" xmlns:xlink="http://www.w3.org/1999/xlink">
	<desc>
			Created with Pixso.
	</desc>
	<defs/>
	<rect id="Payment Method" width="34.000000" height="24.000000" fill="#FFFFFF" fill-opacity="0"/>
	<rect id="Payment Method" width="34.000000" height="24.000000" fill="#FFFFFF" fill-opacity="0"/>
	<rect id="BASE" x="0.500000" y="0.500000" rx="4.000000" width="33.000000" height="23.000000" fill="#FFFFFF" fill-opacity="1.000000"/>
	<rect id="BASE" x="0.500000" y="0.500000" rx="4.000000" width="33.000000" height="23.000000" stroke="#D9D9D9" stroke-opacity="1.000000" stroke-width="1.000000"/>
	<path id="Union" d="M16.0576 15.5278L16.0576 12.5933L17.5723 12.5933C18.1924 12.5933 18.7168 12.3853 19.1436 11.9751L19.2461 11.8711C20.0264 11.022 19.9746 9.69873 19.1436 8.91309C18.7275 8.49756 18.1582 8.27197 17.5723 8.28369L15.1406 8.28369L15.1406 15.5278L16.0576 15.5278ZM16.0576 9.17334L16.0576 11.7036L17.5947 11.7036C17.9365 11.7148 18.2676 11.5762 18.501 11.3281C18.9795 10.8252 18.9678 10.0166 18.4717 9.53125C18.2383 9.30029 17.9258 9.17334 17.5947 9.17334L16.0576 9.17334ZM21.917 10.4097C22.5938 10.4097 23.1299 10.5942 23.5225 10.9585C23.915 11.3223 24.1084 11.8306 24.1084 12.4717L24.1084 15.5278L23.2324 15.5278L23.2324 14.8403L23.1924 14.8403C22.8105 15.4067 22.3096 15.6895 21.6777 15.6895C21.1426 15.6895 20.6865 15.5278 20.3281 15.2041C19.9746 14.9038 19.7754 14.459 19.7871 13.9912C19.7871 13.4771 19.9805 13.0728 20.3623 12.7666C20.7432 12.4604 21.2559 12.3101 21.8936 12.3101C22.4404 12.3101 22.8848 12.4141 23.2373 12.6104L23.2373 12.397C23.2373 12.0791 23.1006 11.7788 22.8623 11.5708C22.6172 11.3511 22.3037 11.23 21.9795 11.23Q21.623 11.23 21.3369 11.3711L21.3369 11.3711L21.3369 11.3711Q21.0049 11.5347 20.7666 11.8882L19.958 11.374C20.3906 10.7329 21.0459 10.4097 21.917 10.4097ZM26.0791 17.7056L29.1426 10.5713L28.1455 10.5713L26.7285 14.1299L26.7109 14.1299L25.2588 10.5713L24.2627 10.5713L26.2725 15.21L25.1338 17.7056L26.0791 17.7056ZM21.0342 14.6152C20.8467 14.4766 20.7324 14.251 20.7324 14.0083C20.7324 13.7368 20.8574 13.5117 21.1025 13.3325C21.3535 13.1533 21.666 13.061 22.0361 13.061C22.5488 13.0552 22.9473 13.1709 23.2324 13.4019C23.2324 13.7949 23.0791 14.1357 22.7773 14.4243C22.5039 14.7017 22.1338 14.8579 21.7461 14.8579C21.4902 14.8633 21.2393 14.7769 21.0342 14.6152Z" clip-rule="evenodd" fill="#3C4043" fill-opacity="1.000000" fill-rule="evenodd"/>
	<path id="Blue" d="M12.8926 11.9575C12.8926 11.6748 12.8701 11.3916 12.8242 11.1143L8.95801 11.1143L8.95801 12.7144L11.1729 12.7144C11.082 13.2285 10.7861 13.6909 10.3535 13.9795L10.3535 15.0195L11.6738 15.0195C12.4482 14.2974 12.8926 13.2285 12.8926 11.9575Z" fill="#4285F4" fill-opacity="1.000000" fill-rule="nonzero"/>
	<path id="Green" d="M8.95801 16.0249C10.0625 16.0249 10.9971 15.6548 11.6738 15.0195L10.3535 13.9795C9.9834 14.2339 9.51074 14.3784 8.95801 14.3784C7.8877 14.3784 6.98242 13.6445 6.6582 12.6626L5.29688 12.6626L5.29688 13.7373C5.99121 15.1411 7.40918 16.0249 8.95801 16.0249Z" fill="#34A853" fill-opacity="1.000000" fill-rule="nonzero"/>
	<path id="Yellow" d="M6.6582 12.6626C6.4873 12.1484 6.4873 11.5884 6.6582 11.0684L6.6582 9.99951L5.29688 9.99951C4.71094 11.1724 4.71094 12.5586 5.29688 13.7314L6.6582 12.6626Z" fill="#FBBC04" fill-opacity="1.000000" fill-rule="nonzero"/>
	<path id="Red" d="M8.95801 9.35254C9.54492 9.34131 10.1084 9.56641 10.5293 9.97656L11.7031 8.78662C10.957 8.08203 9.97754 7.69482 8.95801 7.70654C7.40918 7.70654 5.99121 8.5957 5.29688 9.99951L6.6582 11.0742C6.98242 10.0864 7.8877 9.35254 8.95801 9.35254Z" fill="#EA4335" fill-opacity="1.000000" fill-rule="nonzero"/>
</svg>
