<svg width="31" height="25" viewBox="0 0 31 25" fill="none" xmlns="http://www.w3.org/2000/svg">
<path fill-rule="evenodd" clip-rule="evenodd" d="M29.8728 7.48348C29.9963 6.28443 30.1265 5.0957 30.2162 3.89214C30.2915 2.87274 29.5234 1.98447 28.504 1.90917C27.4846 1.83388 26.5972 2.60042 26.5219 3.61981C26.4351 4.7887 26.3078 5.94271 26.1889 7.10802C26.0847 8.12567 26.8258 9.03473 27.8435 9.13896C28.8595 9.24226 29.7686 8.50114 29.8728 7.48348Z" fill="#E21A43"/>
<path fill-rule="evenodd" clip-rule="evenodd" d="M20.6178 10.5788C18.4368 7.48904 16.1015 4.51106 13.8562 1.46967C13.2492 0.646631 12.0881 0.47246 11.265 1.07939C10.4436 1.68725 10.2687 2.84581 10.8756 3.66885C13.1047 6.69018 15.4257 9.64484 17.5905 12.7146C18.1802 13.549 19.3373 13.7488 20.1717 13.1592C21.0078 12.5704 21.2075 11.4133 20.6178 10.5788Z" fill="#E21A43"/>
<path fill-rule="evenodd" clip-rule="evenodd" d="M12.4224 21.3881C9.44776 20.2545 6.43511 19.2016 3.47416 18.0331C2.52409 17.66 1.44803 18.1273 1.07234 19.078C0.698253 20.0297 1.16556 21.1057 2.11631 21.4814C5.09127 22.6515 8.11515 23.7109 11.1036 24.8503C12.0592 25.2139 13.1293 24.7346 13.4928 23.779C13.858 22.8243 13.3781 21.7517 12.4224 21.3881Z" fill="#E21A43"/>
</svg>
