<svg width="16.000000" height="15.000000" viewBox="0 0 16 15" fill="none" xmlns="http://www.w3.org/2000/svg" xmlns:xlink="http://www.w3.org/1999/xlink">
	<desc>
			Created with Pixso.
	</desc>
	<defs/>
	<path id="Vector" d="M3.35791 1.66748C3.35742 2.10938 3.18066 2.5332 2.86572 2.8457C2.55029 3.1582 2.12354 3.3335 1.67822 3.33301C1.23291 3.33301 0.805664 3.15723 0.491211 2.84424C0.17627 2.53174 0 2.10791 0 1.66553C0 1.22363 0.177246 0.799805 0.492188 0.487305C0.807129 0.175293 1.23438 0 1.67969 0C2.125 0 2.55176 0.175781 2.8667 0.48877C3.18115 0.80127 3.35791 1.22559 3.35791 1.66748ZM3.4082 4.56738L0.050293 4.56738L0.050293 15L3.4082 15L3.4082 4.56738ZM8.71338 4.56738L5.37256 4.56738L5.37256 15L8.68018 15L8.68018 9.52539C8.68018 6.47559 12.6841 6.19238 12.6841 9.52539L12.6841 15L16 15L16 8.39209C16 3.25049 10.0732 3.44238 8.68018 5.96729L8.71338 4.56738Z" fill="#666666" fill-opacity="1.000000" fill-rule="nonzero"/>
</svg>
