<svg width="34.000000" height="24.000000" viewBox="0 0 34 24" fill="none" xmlns="http://www.w3.org/2000/svg" xmlns:xlink="http://www.w3.org/1999/xlink">
	<desc>
			Created with Pixso.
	</desc>
	<defs/>
	<rect id="Payment Method" width="34.000000" height="24.000000" fill="#FFFFFF" fill-opacity="0"/>
	<rect id="Payment Method" width="34.000000" height="24.000000" fill="#FFFFFF" fill-opacity="0"/>
	<rect id="BASE" x="0.500000" y="0.500000" rx="4.000000" width="33.000000" height="23.000000" fill="#FFFFFF" fill-opacity="1.000000"/>
	<rect id="BASE" x="0.500000" y="0.500000" rx="4.000000" width="33.000000" height="23.000000" stroke="#D9D9D9" stroke-opacity="1.000000" stroke-width="1.000000"/>
	<path id="ApplePay" d="M8.25098 8.93311C8.70703 8.97266 9.16406 8.69482 9.44922 8.34326C9.72949 7.98145 9.91504 7.49561 9.86816 7C9.46387 7.02002 8.96387 7.27734 8.67871 7.63916C8.41699 7.95166 8.19336 8.45703 8.25098 8.93311ZM13.6826 15.3169L13.6826 7.58984L16.4648 7.58984C17.9014 7.58984 18.9053 8.62061 18.9053 10.1274C18.9053 11.6343 17.8818 12.6748 16.4268 12.6748L14.833 12.6748L14.833 15.3169L13.6826 15.3169ZM14.833 8.60107L16.1602 8.60107C17.1592 8.60107 17.7295 9.15576 17.7295 10.1323C17.7295 11.1089 17.1592 11.6689 16.1553 11.6689L14.833 11.6689L14.833 8.60107ZM9.86328 9.02734C9.46094 9.00293 9.09375 9.15332 8.79688 9.27441C8.60645 9.35254 8.44531 9.41846 8.32227 9.41846C8.18359 9.41846 8.01562 9.34912 7.82715 9.271C7.5791 9.16846 7.2959 9.05127 7 9.05664C6.31934 9.06689 5.68652 9.46826 5.33984 10.1074C4.62598 11.3862 5.1543 13.2798 5.84375 14.3203C6.18164 14.8359 6.58594 15.4009 7.11816 15.3809C7.62305 15.3613 7.82227 15.0391 8.43164 15.0391C8.74609 15.0391 8.94531 15.1289 9.13672 15.2153C9.31934 15.2974 9.49414 15.376 9.75391 15.3711C10.3057 15.3613 10.6523 14.856 10.9902 14.3403C11.376 13.7554 11.5322 13.1855 11.542 13.1558C11.5322 13.146 10.4766 12.7246 10.4668 11.4556C10.458 10.4561 11.2061 9.94922 11.3232 9.86963C11.3301 9.86475 11.335 9.86133 11.3379 9.85986C10.8613 9.12646 10.1201 9.04688 9.86328 9.02734ZM22.7051 14.3896C22.4004 14.9946 21.7305 15.376 21.0068 15.376C19.9375 15.376 19.1904 14.7119 19.1904 13.7109C19.1904 12.7197 19.9131 12.1494 21.25 12.0654L22.6865 11.9761L22.6865 11.5498C22.6865 10.9204 22.291 10.5786 21.5879 10.5786C21.0068 10.5786 20.584 10.8906 20.498 11.3667L19.4609 11.3667C19.4951 10.3652 20.3984 9.63672 21.6211 9.63672C22.9385 9.63672 23.7949 10.3555 23.7949 11.4707L23.7949 15.3169L22.7295 15.3169L22.7295 14.3896L22.7051 14.3896ZM27.3281 15.6191C26.8672 16.9722 26.3389 17.418 25.2168 17.418C25.1309 17.418 24.8457 17.4082 24.7793 17.3882L24.7793 16.4614C24.8506 16.4717 25.0264 16.4814 25.1162 16.4814C25.626 16.4814 25.9111 16.2583 26.0869 15.6787L26.1914 15.3364L24.2412 9.71094L25.4453 9.71094L26.8008 14.2759L26.8242 14.2759L28.1797 9.71094L29.3496 9.71094L27.3281 15.6191ZM21.3164 14.4595C20.7031 14.4595 20.3125 14.1519 20.3125 13.6812C20.3125 13.1953 20.6885 12.9131 21.4062 12.8682L22.6865 12.7842L22.6865 13.2202C22.6865 13.9438 22.0967 14.4595 21.3164 14.4595Z" clip-rule="evenodd" fill="#000000" fill-opacity="1.000000" fill-rule="evenodd"/>
</svg>
