<svg width="179.752441" height="52.000000" viewBox="0 0 179.752 52" fill="none" xmlns="http://www.w3.org/2000/svg" xmlns:xlink="http://www.w3.org/1999/xlink">
	<desc>
			Created with Pixso.
	</desc>
	<defs>
		<linearGradient id="paint_linear_106_808_0" x1="29.026434" y1="40.677460" x2="6.680666" y2="18.860338" gradientUnits="userSpaceOnUse">
			<stop stop-color="#00A0FF"/>
			<stop offset="0.006600" stop-color="#00A1FF"/>
			<stop offset="0.260100" stop-color="#00BEFF"/>
			<stop offset="0.512200" stop-color="#00D2FF"/>
			<stop offset="0.760400" stop-color="#00DFFF"/>
			<stop offset="1.000000" stop-color="#00E3FF"/>
		</linearGradient>
		<linearGradient id="paint_linear_106_810_0" x1="45.050369" y1="25.997978" x2="12.832188" y2="25.997978" gradientUnits="userSpaceOnUse">
			<stop stop-color="#FFE000"/>
			<stop offset="0.408700" stop-color="#FFBD00"/>
			<stop offset="0.775400" stop-color="#FFA500"/>
			<stop offset="1.000000" stop-color="#FF9C00"/>
		</linearGradient>
		<linearGradient id="paint_linear_106_812_0" x1="33.056995" y1="23.014921" x2="2.754314" y2="-6.570879" gradientUnits="userSpaceOnUse">
			<stop stop-color="#FF3A44"/>
			<stop offset="1.000000" stop-color="#C31162"/>
		</linearGradient>
		<linearGradient id="paint_linear_106_814_0" x1="9.716192" y1="51.770943" x2="23.247702" y2="38.559689" gradientUnits="userSpaceOnUse">
			<stop stop-color="#32A071"/>
			<stop offset="0.068500" stop-color="#2DA771"/>
			<stop offset="0.476200" stop-color="#15CF74"/>
			<stop offset="0.800900" stop-color="#06E775"/>
			<stop offset="1.000000" stop-color="#00F076"/>
		</linearGradient>
	</defs>
	<path id="path14" d="M173.095 52L6.65771 52C2.99756 52 0 49.0732 0 45.5L0 6.5C0 2.92676 2.99756 0 6.65771 0L173.095 0C176.755 0 179.752 2.92676 179.752 6.5L179.752 45.5C179.752 49.0732 176.755 52 173.095 52Z" fill="#333333" fill-opacity="1.000000" fill-rule="nonzero"/>
	<path id="path20" d="M63.1367 13.3169C63.1367 14.4023 62.8037 15.2715 62.1479 15.9199C61.394 16.6885 60.4121 17.0752 59.2085 17.0752C58.0586 17.0752 57.0767 16.6821 56.271 15.9067C55.4639 15.1206 55.061 14.1553 55.061 13C55.061 11.8442 55.4639 10.8794 56.271 10.0991C57.0767 9.31738 58.0586 8.92432 59.2085 8.92432C59.7812 8.92432 60.3271 9.03955 60.8481 9.25439C61.3672 9.47021 61.79 9.7627 62.0962 10.1235L61.4009 10.8091C60.8662 10.1934 60.1392 9.88965 59.2085 9.88965C58.3696 9.88965 57.6426 10.1758 57.0249 10.7524C56.4141 11.3311 56.1079 12.0801 56.1079 13C56.1079 13.9194 56.4141 14.6753 57.0249 15.2539C57.6426 15.8242 58.3696 16.1167 59.2085 16.1167C60.0991 16.1167 60.8481 15.8242 61.439 15.2471C61.8286 14.8652 62.0498 14.3389 62.1079 13.666L59.2085 13.666L59.2085 12.7271L63.0767 12.7271C63.123 12.9302 63.1367 13.1265 63.1367 13.3169Z" fill="#FFFFFF" fill-opacity="1.000000" fill-rule="nonzero"/>
	<path id="path20" d="M62.1479 15.9199C61.394 16.6885 60.4121 17.0752 59.2085 17.0752C58.0586 17.0752 57.0767 16.6821 56.271 15.9067C55.4639 15.1206 55.061 14.1553 55.061 13C55.061 11.8442 55.4639 10.8794 56.271 10.0991C57.0767 9.31738 58.0586 8.92432 59.2085 8.92432C59.7812 8.92432 60.3271 9.03955 60.8481 9.25439C61.3672 9.47021 61.79 9.7627 62.0962 10.1235L61.4009 10.8091C60.8662 10.1934 60.1392 9.88965 59.2085 9.88965C58.3696 9.88965 57.6426 10.1758 57.0249 10.7524C56.4141 11.3311 56.1079 12.0801 56.1079 13C56.1079 13.9194 56.4141 14.6753 57.0249 15.2539C57.6426 15.8242 58.3696 16.1167 59.2085 16.1167C60.0991 16.1167 60.8481 15.8242 61.439 15.2471C61.8286 14.8652 62.0498 14.3389 62.1079 13.666L59.2085 13.666L59.2085 12.7271L63.0767 12.7271C63.123 12.9302 63.1367 13.1265 63.1367 13.3169C63.1367 14.4023 62.8037 15.2715 62.1479 15.9199Z" stroke="#FFFFFF" stroke-opacity="1.000000" stroke-width="0.160000"/>
	<path id="path24" d="M69.2729 10.0601L65.6396 10.0601L65.6396 12.5303L68.915 12.5303L68.915 13.4692L65.6396 13.4692L65.6396 15.9395L69.2729 15.9395L69.2729 16.8965L64.6108 16.8965L64.6108 9.10303L69.2729 9.10303L69.2729 10.0601Z" fill="#FFFFFF" fill-opacity="1.000000" fill-rule="nonzero"/>
	<path id="path24" d="M65.6396 10.0601L65.6396 12.5303L68.915 12.5303L68.915 13.4692L65.6396 13.4692L65.6396 15.9395L69.2729 15.9395L69.2729 16.8965L64.6108 16.8965L64.6108 9.10303L69.2729 9.10303L69.2729 10.0601L65.6396 10.0601Z" stroke="#FFFFFF" stroke-opacity="1.000000" stroke-width="0.160000"/>
	<path id="path28" d="M73.604 16.8965L72.5752 16.8965L72.5752 10.0601L70.3467 10.0601L70.3467 9.10303L75.834 9.10303L75.834 10.0601L73.604 10.0601L73.604 16.8965Z" fill="#FFFFFF" fill-opacity="1.000000" fill-rule="nonzero"/>
	<path id="path28" d="M72.5752 16.8965L72.5752 10.0601L70.3467 10.0601L70.3467 9.10303L75.834 9.10303L75.834 10.0601L73.604 10.0601L73.604 16.8965L72.5752 16.8965Z" stroke="#FFFFFF" stroke-opacity="1.000000" stroke-width="0.160000"/>
	<path id="path32" d="M79.8052 16.8965L79.8052 9.10303L80.832 9.10303L80.832 16.8965L79.8052 16.8965Z" fill="#FFFFFF" fill-opacity="1.000000" fill-rule="nonzero"/>
	<path id="path32" d="M79.8052 9.10303L80.832 9.10303L80.832 16.8965L79.8052 16.8965L79.8052 9.10303Z" stroke="#FFFFFF" stroke-opacity="1.000000" stroke-width="0.160000"/>
	<path id="path36" d="M85.3843 16.8965L84.3638 16.8965L84.3638 10.0601L82.127 10.0601L82.127 9.10303L87.6211 9.10303L87.6211 10.0601L85.3843 10.0601L85.3843 16.8965Z" fill="#FFFFFF" fill-opacity="1.000000" fill-rule="nonzero"/>
	<path id="path36" d="M84.3638 16.8965L84.3638 10.0601L82.127 10.0601L82.127 9.10303L87.6211 9.10303L87.6211 10.0601L85.3843 10.0601L85.3843 16.8965L84.3638 16.8965Z" stroke="#FFFFFF" stroke-opacity="1.000000" stroke-width="0.160000"/>
	<path id="path40" d="M98.0098 15.894C97.2227 16.6821 96.2476 17.0752 95.084 17.0752C93.9141 17.0752 92.9385 16.6821 92.1514 15.894C91.3657 15.1074 90.9746 14.1421 90.9746 13C90.9746 11.8574 91.3657 10.8921 92.1514 10.1055C92.9385 9.31738 93.9141 8.92432 95.084 8.92432C96.2407 8.92432 97.2158 9.31738 98.0034 10.1123C98.7954 10.9053 99.1865 11.8638 99.1865 13C99.1865 14.1421 98.7954 15.1074 98.0098 15.894ZM92.9121 15.2407C93.5044 15.8242 94.2251 16.1167 95.084 16.1167C95.936 16.1167 96.6636 15.8242 97.2495 15.2407C97.8403 14.6572 98.1396 13.9082 98.1396 13C98.1396 12.0913 97.8403 11.3423 97.2495 10.7588C96.6636 10.1758 95.936 9.8833 95.084 9.8833C94.2251 9.8833 93.5044 10.1758 92.9121 10.7588C92.3213 11.3423 92.0215 12.0913 92.0215 13C92.0215 13.9082 92.3213 14.6572 92.9121 15.2407Z" fill="#FFFFFF" fill-opacity="1.000000" fill-rule="nonzero"/>
	<path id="path40" d="M95.084 17.0752C93.9141 17.0752 92.9385 16.6821 92.1514 15.894C91.3657 15.1074 90.9746 14.1421 90.9746 13C90.9746 11.8574 91.3657 10.8921 92.1514 10.1055C92.9385 9.31738 93.9141 8.92432 95.084 8.92432C96.2407 8.92432 97.2158 9.31738 98.0034 10.1123C98.7954 10.9053 99.1865 11.8638 99.1865 13C99.1865 14.1421 98.7954 15.1074 98.0098 15.894C97.2227 16.6821 96.2476 17.0752 95.084 17.0752ZM95.084 16.1167C95.936 16.1167 96.6636 15.8242 97.2495 15.2407C97.8403 14.6572 98.1396 13.9082 98.1396 13C98.1396 12.0913 97.8403 11.3423 97.2495 10.7588C96.6636 10.1758 95.936 9.8833 95.084 9.8833C94.2251 9.8833 93.5044 10.1758 92.9121 10.7588C92.3213 11.3423 92.0215 12.0913 92.0215 13C92.0215 13.9082 92.3213 14.6572 92.9121 15.2407C93.5044 15.8242 94.2251 16.1167 95.084 16.1167Z" stroke="#FFFFFF" stroke-opacity="1.000000" stroke-width="0.160000"/>
	<path id="path44" d="M100.63 16.8965L100.63 9.10303L101.878 9.10303L105.759 15.1641L105.804 15.1641L105.759 13.666L105.759 9.10303L106.787 9.10303L106.787 16.8965L105.714 16.8965L101.65 10.5361L101.605 10.5361L101.65 12.041L101.65 16.8965L100.63 16.8965Z" fill="#FFFFFF" fill-opacity="1.000000" fill-rule="nonzero"/>
	<path id="path44" d="M100.63 9.10303L101.878 9.10303L105.759 15.1641L105.804 15.1641L105.759 13.666L105.759 9.10303L106.787 9.10303L106.787 16.8965L105.714 16.8965L101.65 10.5361L101.605 10.5361L101.65 12.041L101.65 16.8965L100.63 16.8965L100.63 9.10303Z" stroke="#FFFFFF" stroke-opacity="1.000000" stroke-width="0.160000"/>
	<path id="path46" d="M90.7217 28.2783C87.5942 28.2783 85.0396 30.6021 85.0396 33.8081C85.0396 36.9883 87.5942 39.3364 90.7217 39.3364C93.8555 39.3364 96.4102 36.9883 96.4102 33.8081C96.4102 30.6021 93.8555 28.2783 90.7217 28.2783ZM90.7217 37.1587C89.0054 37.1587 87.5293 35.7759 87.5293 33.8081C87.5293 31.8145 89.0054 30.4556 90.7217 30.4556C92.4375 30.4556 93.9204 31.8145 93.9204 33.8081C93.9204 35.7759 92.4375 37.1587 90.7217 37.1587ZM78.3237 28.2783C75.1895 28.2783 72.6416 30.6021 72.6416 33.8081C72.6416 36.9883 75.1895 39.3364 78.3237 39.3364C81.4561 39.3364 84.0059 36.9883 84.0059 33.8081C84.0059 30.6021 81.4561 28.2783 78.3237 28.2783ZM78.3237 37.1587C76.606 37.1587 75.1245 35.7759 75.1245 33.8081C75.1245 31.8145 76.606 30.4556 78.3237 30.4556C80.0396 30.4556 81.5156 31.8145 81.5156 33.8081C81.5156 35.7759 80.0396 37.1587 78.3237 37.1587ZM63.5708 29.9731L63.5708 32.3228L69.3179 32.3228C69.1494 33.6357 68.7002 34.6011 68.0112 35.2739C67.1724 36.0864 65.8657 36.9883 63.5708 36.9883C60.0337 36.9883 57.2642 34.2012 57.2642 30.748C57.2642 27.2949 60.0337 24.5083 63.5708 24.5083C65.4829 24.5083 66.8745 25.2378 67.9014 26.1836L69.5972 24.5278C68.1611 23.189 66.25 22.1602 63.5708 22.1602C58.7207 22.1602 54.6445 26.0132 54.6445 30.748C54.6445 35.4834 58.7207 39.3364 63.5708 39.3364C66.1919 39.3364 68.1611 38.498 69.709 36.9248C71.2949 35.3765 71.7891 33.1987 71.7891 31.4404C71.7891 30.8945 71.7427 30.3926 71.6597 29.9731L63.5708 29.9731ZM123.897 31.7949C123.43 30.5581 121.987 28.2783 119.047 28.2783C116.135 28.2783 113.71 30.519 113.71 33.8081C113.71 36.9053 116.11 39.3364 119.327 39.3364C121.929 39.3364 123.43 37.7876 124.047 36.8857L122.117 35.6299C121.473 36.5493 120.595 37.1587 119.327 37.1587C118.067 37.1587 117.164 36.5952 116.584 35.4834L124.159 32.4238L123.897 31.7949ZM116.175 33.6357C116.11 31.5039 117.871 30.4121 119.132 30.4121C120.121 30.4121 120.96 30.8945 121.24 31.585L116.175 33.6357ZM110.018 39L112.508 39L112.508 22.75L110.018 22.75L110.018 39ZM105.94 29.5103L105.857 29.5103C105.298 28.8633 104.231 28.2783 102.88 28.2783C100.043 28.2783 97.4507 30.7095 97.4507 33.8262C97.4507 36.9248 100.043 39.3364 102.88 39.3364C104.231 39.3364 105.298 38.7466 105.857 38.0801L105.94 38.0801L105.94 38.873C105.94 40.9873 104.784 42.123 102.918 42.123C101.397 42.123 100.453 41.0508 100.063 40.1489L97.8984 41.0312C98.5225 42.4971 100.175 44.3008 102.918 44.3008C105.837 44.3008 108.301 42.624 108.301 38.5435L108.301 28.6147L105.94 28.6147L105.94 29.5103ZM103.093 37.1587C101.377 37.1587 99.9404 35.7563 99.9404 33.8262C99.9404 31.8774 101.377 30.4556 103.093 30.4556C104.784 30.4556 106.117 31.8774 106.117 33.8262C106.117 35.7563 104.784 37.1587 103.093 37.1587ZM135.555 22.75L129.6 22.75L129.6 39L132.083 39L132.083 32.8428L135.555 32.8428C138.312 32.8428 141.017 30.8945 141.017 27.7959C141.017 24.6982 138.306 22.75 135.555 22.75ZM135.62 30.5825L132.083 30.5825L132.083 25.0103L135.62 25.0103C137.474 25.0103 138.532 26.5137 138.532 27.7959C138.532 29.0532 137.474 30.5825 135.62 30.5825ZM150.97 28.2476C149.176 28.2476 147.31 29.021 146.543 30.7354L148.747 31.6372C149.221 30.7354 150.093 30.4429 151.015 30.4429C152.303 30.4429 153.61 31.1982 153.63 32.5327L153.63 32.7031C153.181 32.4497 152.219 32.0742 151.035 32.0742C148.662 32.0742 146.243 33.3501 146.243 35.7305C146.243 37.9082 148.188 39.3105 150.373 39.3105C152.044 39.3105 152.966 38.5742 153.545 37.7178L153.63 37.7178L153.63 38.9741L156.028 38.9741L156.028 32.7407C156.028 29.8594 153.825 28.2476 150.97 28.2476ZM150.671 37.1523C149.858 37.1523 148.727 36.7593 148.727 35.7759C148.727 34.5181 150.138 34.0356 151.36 34.0356C152.453 34.0356 152.966 34.2715 153.63 34.5815C153.435 36.0864 152.109 37.1523 150.671 37.1523ZM164.766 28.6035L161.912 35.6475L161.827 35.6475L158.876 28.6035L156.198 28.6035L160.632 38.4478L158.102 43.9253L160.697 43.9253L167.529 28.6035L164.766 28.6035ZM142.382 39L144.872 39L144.872 22.75L142.382 22.75L142.382 39Z" fill="#FFFFFF" fill-opacity="1.000000" fill-rule="nonzero"/>
	<path id="path64" d="M13.8945 9.80029C13.5034 10.2002 13.2769 10.8228 13.2769 11.6284L13.2769 40.3779C13.2769 41.1841 13.5034 41.8066 13.8945 42.2061L13.9907 42.2939L30.4917 26.1904L30.4917 25.8101L13.9907 9.70605L13.8945 9.80029Z" fill="url(#paint_linear_106_808_0)" fill-opacity="1.000000" fill-rule="nonzero"/>
	<path id="path78" d="M35.9854 31.5605L30.4912 26.1899L30.4912 25.8096L35.9922 20.439L36.1152 20.5088L42.6294 24.1279C44.4888 25.1548 44.4888 26.8447 42.6294 27.8784L36.1152 31.4907L35.9854 31.5605Z" fill="url(#paint_linear_106_810_0)" fill-opacity="1.000000" fill-rule="nonzero"/>
	<path id="path88" d="M36.1152 31.4907L30.4912 26L13.894 42.2061C14.5117 42.8398 15.5186 42.916 16.6636 42.2822L36.1152 31.4907Z" fill="url(#paint_linear_106_812_0)" fill-opacity="1.000000" fill-rule="nonzero"/>
	<path id="path104" d="M36.1152 20.5093L16.6636 9.71729C15.5186 9.09033 14.5117 9.1665 13.894 9.80029L30.4912 26L36.1152 20.5093Z" fill="url(#paint_linear_106_814_0)" fill-opacity="1.000000" fill-rule="nonzero"/>
</svg>
