<svg width="1563.506836" height="256.222656" viewBox="0 0 1563.51 256.223" fill="none" xmlns="http://www.w3.org/2000/svg" xmlns:xlink="http://www.w3.org/1999/xlink">
	<desc>
			Created with Pixso.
	</desc>
	<defs/>
	<path id="Vector" d="M826.607 4.92285C842.211 1.64502 857.155 -0.0078125 871.223 0C857.207 0.0078125 842.31 1.66064 826.707 4.92285C816.944 6.98291 807.182 9.60449 797.635 12.7158L797.607 12.7227C807.107 9.62305 816.907 6.92285 826.607 4.92285ZM810.77 43.5552C805.196 45.0767 799.662 46.77 794.207 48.623C792.307 49.123 790.507 49.623 788.707 50.2227C770.607 55.7227 753.707 63.2227 740.107 71.9229C734.907 75.123 730.407 79.123 726.407 83.4229C724.207 85.123 722.107 86.8228 720.107 88.5229C709.307 97.7227 701.707 108.923 694.307 119.723C683.407 135.723 673.107 150.723 654.007 157.723C652.007 158.423 649.807 159.223 647.407 159.923C642.907 160.423 638.307 160.623 633.607 160.823C623.507 161.323 613.107 161.823 602.707 164.623C590.907 167.823 581.407 171.323 572.207 174.623C570.807 175.123 569.507 175.523 568.207 176.023C557.707 177.723 547.907 179.123 539.907 180.323L537.707 180.623C492.907 187.123 478.107 168.023 461.007 145.823L460.552 145.236C474.463 147.921 488.521 150.217 502.507 151.423C507.407 151.823 512.007 152.023 516.307 152.023C537.507 152.023 551.807 147.323 568.307 141.723C595.107 137.523 627.007 131.923 647.507 125.623C658.407 124.523 668.707 122.123 678.307 115.323C689.707 107.123 697.307 94.0229 705.407 80.123C711.607 69.3228 718.107 58.2227 726.607 49.0229C744.607 35.2227 768.507 22.9229 794.107 14.2227C847.707 -0.777344 912.107 1.12305 946.007 39.123C958.607 53.2227 967.907 67.0229 976.807 80.4229C999.907 114.823 1018.11 142.023 1077.91 145.723C1100.71 147.123 1125.01 143.523 1152.21 134.823C1176.41 127.023 1200.41 116.023 1223.71 105.423C1248.51 94.0229 1274.31 82.3228 1299.71 74.8228C1386.21 49.3228 1474.91 40.7227 1563.21 49.3228L1563.51 49.3228L1563.31 49.123C1551.21 36.9229 1533.81 28.8228 1511.61 25.3228C1492.81 22.3228 1470.11 22.4229 1444.11 25.7227C1397.01 31.623 1348.01 46.8228 1318.81 55.8228L1317.41 56.2227C1292.41 63.9229 1267.51 74.7227 1241.21 86.123L1241.09 86.1729C1187.33 109.458 1131.77 133.52 1075.21 129.523C1051.11 127.823 1032.91 121.423 1017.71 109.223C1004.21 98.4229 994.907 84.5229 985.107 69.8228C973.307 52.123 961.007 33.7227 940.107 18.8228C926.207 9.02295 908.707 2.92285 888.007 0.822754C882.569 0.270508 876.97 -0.00292969 871.223 0C876.898 0.00292969 882.432 0.276855 887.807 0.822754C908.507 2.92285 926.007 8.92285 939.807 18.8228C960.707 33.7227 972.907 52.123 984.807 69.8228C994.707 84.5229 1004.01 98.5229 1017.51 109.323C1032.71 121.523 1051.01 128.023 1075.11 129.723C1079.41 130.023 1083.61 130.123 1087.81 130.123C1140.11 130.123 1191.51 107.923 1241.31 86.3228C1267.61 74.9229 1292.51 64.123 1317.51 56.4229L1318.91 56.0229C1348.11 47.0229 1397.01 31.9229 1444.11 25.9229C1470.01 22.7227 1492.71 22.5229 1511.51 25.5229C1533.51 29.0229 1550.81 37.0229 1562.91 49.123C1474.61 40.5229 1386.01 49.123 1299.61 74.623C1274.11 82.123 1248.41 93.8228 1223.51 105.223C1200.21 115.923 1176.21 126.823 1152.01 134.623C1124.81 143.423 1100.51 146.923 1077.71 145.523C1018.01 141.823 999.807 114.623 976.807 80.2227C967.907 66.8228 958.707 53.0229 946.007 38.8228C934.907 26.3228 920.007 17.123 901.707 11.5229C887.807 7.22266 872.207 5.02295 855.407 5.02295C852.207 5.02295 849.107 5.12305 846.007 5.12305C830.216 5.92236 813.726 8.52002 797.635 12.7158C796.522 13.0781 795.413 13.4473 794.307 13.8228C792.407 14.3228 790.607 14.8228 788.807 15.4229C770.707 20.9229 753.807 28.4229 740.207 37.123C735.007 40.3228 730.507 44.3228 726.507 48.623C724.307 50.3228 722.207 52.0229 720.207 53.7227C709.407 62.9229 701.807 74.123 694.407 84.9229C683.507 100.923 673.207 115.923 654.107 122.923C652.107 123.623 649.907 124.423 647.507 125.123C643.007 125.623 638.407 125.823 633.707 126.023C623.607 126.523 613.207 127.023 602.807 129.823C591.007 133.023 581.507 136.523 572.307 139.823C570.907 140.323 569.607 140.723 568.307 141.223C557.807 142.923 548.007 144.323 540.007 145.523L537.807 145.823C493.007 152.323 478.207 133.223 461.107 111.023C450.007 96.7227 437.507 80.5229 415.107 70.0229C406.407 65.9229 397.407 63.4229 387.607 62.3228C378.907 61.4229 369.807 61.7227 359.707 63.123C341.007 65.8228 322.007 72.3228 303.507 78.623C282.507 85.8228 260.707 93.2227 239.707 94.8228C225.607 95.9229 212.407 96.2227 199.707 96.5229C171.007 97.2227 143.907 97.8228 112.507 107.223L111.107 107.623L110.184 107.898C88.4741 114.383 69.6641 120.002 52.5068 118.523C43.3071 117.723 35.1069 115.023 27.3071 110.223C18.9072 105.023 10.8071 97.4229 2.80713 86.8228L2.70703 86.623L2.60693 86.8228C0.404785 95.6323 -0.366211 103.347 0.37207 109.812C0.435547 110.462 0.51416 111.099 0.606934 111.723C1.60693 118.023 4.10693 123.223 8.10693 127.023C28.4072 146.823 83.3071 131.723 123.407 120.623C141.907 115.523 157.907 111.123 165.707 111.523L167.707 111.623C207.188 113.56 247.383 115.525 287.4 118.81C271.468 123.985 255.313 128.426 239.607 129.623C225.507 130.723 212.307 131.023 199.607 131.323C170.907 132.023 143.807 132.623 112.407 142.023L111.007 142.423L110.084 142.699C88.3745 149.183 69.5645 154.802 52.4072 153.323C43.207 152.523 35.0068 149.823 27.207 145.023C18.8071 139.823 10.707 132.223 2.70703 121.623L2.60693 121.423L2.50684 121.623C0.106934 131.223 -0.592773 139.523 0.506836 146.323C1.40723 152.723 4.00684 157.923 8.00684 161.823C28.3047 181.62 83.1934 166.427 123.292 155.327L123.307 155.323C141.807 150.223 157.807 145.823 165.607 146.223L167.607 146.323C207.115 148.262 247.336 150.228 287.38 153.516C271.454 158.688 255.307 163.126 239.607 164.323C225.507 165.423 212.307 165.723 199.607 166.023C170.907 166.723 143.807 167.323 112.407 176.723L111.007 177.123L110.084 177.398C88.3745 183.883 69.5645 189.502 52.4072 188.023C43.207 187.223 35.0068 184.523 27.207 179.723C18.8071 174.523 10.707 166.923 2.70703 156.323L2.60693 156.123L2.50684 156.323C0.106934 165.923 -0.592773 174.223 0.506836 181.023C1.40723 187.423 4.00684 192.623 8.00684 196.523C28.3047 216.42 83.1934 201.227 123.292 190.127L123.307 190.123C141.807 185.023 157.807 180.623 165.607 181.023L167.607 181.123C207.034 183.058 247.172 185.02 287.134 188.296C271.288 193.434 255.226 197.833 239.607 199.023C225.507 200.123 212.307 200.423 199.607 200.723C170.907 201.423 143.807 202.023 112.407 211.423L111.007 211.823L110.084 212.099C88.3745 218.583 69.5645 224.202 52.4072 222.723C43.207 221.923 35.0068 219.223 27.207 214.423C18.8071 209.223 10.707 201.623 2.70703 191.023L2.60693 190.823L2.50684 191.023C0.106934 200.623 -0.592773 208.923 0.506836 215.723C1.40723 222.123 4.00684 227.323 8.00684 231.223C28.3071 251.023 83.207 235.923 123.307 224.823C141.807 219.723 157.807 215.323 165.607 215.723L167.607 215.823C243.007 219.523 321.007 223.323 395.407 236.223C408.007 238.423 420.807 241.123 433.207 243.823C455.907 248.723 479.307 253.723 502.507 255.623C507.407 256.023 512.007 256.223 516.307 256.223C537.507 256.223 551.807 251.623 568.207 245.923C595.007 241.723 626.907 236.123 647.407 229.823C658.307 228.723 668.607 226.323 678.207 219.523C689.607 211.323 697.207 198.223 705.307 184.323C711.507 173.523 718.007 162.423 726.507 153.223C744.507 139.423 768.407 127.123 794.007 118.423C847.607 103.423 912.007 105.323 945.907 143.323C958.507 157.423 967.807 171.223 976.707 184.623C999.807 219.023 1018.01 246.223 1077.81 249.923C1100.61 251.323 1124.91 247.723 1152.11 239.023C1176.31 231.223 1200.31 220.223 1223.61 209.623C1248.41 198.223 1274.21 186.523 1299.61 179.023C1386.11 153.523 1474.81 144.923 1563.11 153.523L1563.41 153.523L1563.21 153.323C1551.11 141.123 1533.71 133.023 1511.51 129.523C1492.71 126.523 1470.01 126.623 1444.01 129.923C1396.91 135.823 1347.91 151.023 1318.71 160.023L1317.31 160.423C1292.31 168.123 1267.41 178.923 1241.11 190.323L1240.99 190.373C1187.23 213.657 1131.67 237.72 1075.11 233.723C1051.01 232.023 1032.81 225.623 1017.61 213.423C1004.11 202.623 994.807 188.723 985.007 174.023C973.207 156.323 960.907 137.923 940.007 123.023C926.107 113.223 908.607 107.123 887.907 105.023C869.207 103.123 848.607 104.523 826.607 109.123C815.707 111.423 804.807 114.423 794.207 118.023C792.307 118.523 790.507 119.023 788.707 119.623C770.607 125.123 753.707 132.623 740.107 141.323C734.907 144.523 730.407 148.523 726.407 152.823C724.207 154.523 722.107 156.223 720.107 157.923C709.307 167.123 701.707 178.323 694.307 189.123C683.407 205.123 673.107 220.123 654.007 227.123C652.007 227.823 649.807 228.623 647.407 229.323C642.907 229.823 638.307 230.023 633.607 230.223C623.507 230.723 613.107 231.223 602.707 234.023C590.907 237.223 581.407 240.723 572.207 244.023C570.807 244.523 569.507 244.923 568.207 245.423C557.707 247.123 547.907 248.523 539.907 249.723L537.707 250.023C492.907 256.523 478.107 237.423 461.007 215.223C460.909 215.097 460.811 214.97 460.713 214.844C474.586 217.525 488.583 219.783 502.507 220.923C507.407 221.323 512.007 221.523 516.307 221.523C537.507 221.523 551.807 216.823 568.207 211.223C595.007 207.023 626.907 201.423 647.407 195.123C658.307 194.023 668.607 191.623 678.207 184.823C689.607 176.623 697.207 163.523 705.307 149.623C711.507 138.823 718.007 127.723 726.507 118.523C744.507 104.723 768.407 92.4229 794.007 83.7227C847.607 68.7227 912.007 70.623 945.907 108.623C958.507 122.723 967.807 136.523 976.707 149.923C999.807 184.323 1018.01 211.523 1077.81 215.223C1100.61 216.623 1124.91 213.023 1152.11 204.323C1176.31 196.523 1200.31 185.523 1223.61 174.923C1248.41 163.523 1274.21 151.823 1299.61 144.323C1386.11 118.823 1474.81 110.223 1563.11 118.823L1563.41 118.823L1563.21 118.623C1551.11 106.423 1533.71 98.3228 1511.51 94.8228C1492.71 91.8228 1470.01 91.9229 1444.01 95.2227C1396.91 101.123 1347.91 116.323 1318.71 125.323L1317.31 125.723C1292.31 133.423 1267.41 144.223 1241.11 155.623L1240.99 155.673C1187.23 178.958 1131.67 203.02 1075.11 199.023C1051.01 197.323 1032.81 190.923 1017.61 178.723C1004.11 167.923 994.807 154.023 985.007 139.323C973.207 121.623 960.907 103.223 940.007 88.3228C926.107 78.5229 908.607 72.4229 887.907 70.3228C882.484 69.772 876.902 69.4985 871.173 69.5C857.12 69.4961 842.192 71.1489 826.607 74.4229C821.336 75.5098 816.035 76.8032 810.77 78.2554C805.196 79.7764 799.662 81.4702 794.207 83.3228C792.307 83.8228 790.507 84.3228 788.707 84.9229C770.607 90.4229 753.707 97.9229 740.107 106.623C734.907 109.823 730.407 113.823 726.407 118.123C724.207 119.823 722.107 121.523 720.107 123.223C709.307 132.423 701.707 143.623 694.307 154.423C683.407 170.423 673.107 185.423 654.007 192.423C652.007 193.123 649.807 193.923 647.407 194.623C642.907 195.123 638.307 195.323 633.607 195.523C623.507 196.023 613.107 196.523 602.707 199.323C590.907 202.523 581.407 206.023 572.207 209.323C570.807 209.823 569.507 210.223 568.207 210.723C557.707 212.423 547.907 213.823 539.907 215.023L537.707 215.323C492.907 221.823 478.107 202.723 461.007 180.523L460.621 180.026C474.525 182.715 488.552 184.98 502.507 186.123C507.407 186.523 512.007 186.723 516.307 186.723C537.507 186.723 551.807 182.123 568.207 176.523C595.007 172.323 626.907 166.723 647.407 160.423C658.307 159.323 668.607 156.923 678.207 150.123C689.607 141.923 697.207 128.823 705.307 114.923C711.507 104.123 718.007 93.0229 726.507 83.8228C744.507 70.0229 768.407 57.7227 794.007 49.0229C847.607 34.0229 912.007 35.9229 945.907 73.9229C958.507 88.0229 967.807 101.823 976.707 115.223C999.807 149.623 1018.01 176.823 1077.81 180.523C1100.61 181.923 1124.91 178.323 1152.11 169.623C1176.31 161.823 1200.31 150.823 1223.61 140.223C1248.41 128.823 1274.21 117.123 1299.61 109.623C1386.11 84.123 1474.81 75.5229 1563.11 84.123L1563.41 84.123L1563.21 83.9229C1551.11 71.7227 1533.71 63.623 1511.51 60.123C1492.71 57.123 1470.01 57.2227 1444.01 60.5229C1396.91 66.4229 1347.91 81.623 1318.71 90.623L1317.31 91.0229C1292.31 98.7227 1267.41 109.523 1241.11 120.923L1240.99 120.973C1187.23 144.257 1131.67 168.32 1075.11 164.323C1051.01 162.623 1032.81 156.223 1017.61 144.023C1004.11 133.223 994.807 119.323 985.007 104.623C973.207 86.9229 960.907 68.5229 940.007 53.623C926.107 43.8228 908.607 37.7227 887.907 35.623C882.484 35.0718 876.902 34.7983 871.173 34.7998C857.12 34.7964 842.192 36.4492 826.607 39.7227C821.336 40.8096 816.035 42.103 810.77 43.5552ZM810.77 43.5552C816.025 42.1206 821.316 40.8394 826.607 39.7227C842.228 36.4565 857.143 34.8037 871.173 34.7998C876.866 34.8018 882.415 35.0752 887.807 35.623C908.507 37.7227 926.007 43.7227 939.807 53.623C960.707 68.5229 972.907 86.9229 984.807 104.623C994.707 119.323 1004.01 133.323 1017.51 144.123C1032.71 156.323 1051.01 162.823 1075.11 164.523C1079.41 164.823 1083.61 164.923 1087.81 164.923C1140.11 164.923 1191.51 142.723 1241.31 121.123C1267.61 109.723 1292.51 98.9229 1317.51 91.2227L1318.91 90.8228C1348.11 81.8228 1397.01 66.7227 1444.11 60.7227C1470.01 57.5229 1492.71 57.3228 1511.51 60.3228C1533.51 63.8228 1550.81 71.8228 1562.91 83.9229C1474.61 75.3228 1386.01 83.9229 1299.61 109.423C1274.11 116.923 1248.41 128.623 1223.51 140.023C1200.21 150.723 1176.21 161.623 1152.01 169.423C1124.81 178.223 1100.51 181.723 1077.71 180.323C1018.01 176.623 999.807 149.423 976.807 115.023C967.907 101.623 958.707 87.8228 946.007 73.623C934.907 61.123 920.007 51.9229 901.707 46.3228C887.807 42.0229 872.207 39.8228 855.407 39.8228C852.207 39.8228 849.107 39.9229 846.007 39.9229C830.207 40.7227 813.707 43.3228 797.607 47.5229C801.944 46.1074 806.345 44.7754 810.77 43.5552ZM810.77 78.2554C816.026 76.8203 821.316 75.5391 826.607 74.4229C842.228 71.1567 857.143 69.5039 871.173 69.5C876.866 69.5015 882.415 69.7749 887.807 70.3228C908.507 72.4229 926.007 78.4229 939.807 88.3228C960.707 103.223 972.907 121.623 984.807 139.323C994.707 154.023 1004.01 168.023 1017.51 178.823C1032.71 191.023 1051.01 197.523 1075.11 199.223C1079.41 199.523 1083.61 199.623 1087.81 199.623C1140.11 199.623 1191.51 177.423 1241.31 155.823C1267.61 144.423 1292.51 133.623 1317.51 125.923L1318.91 125.523C1348.11 116.523 1397.01 101.423 1444.11 95.4229C1470.01 92.2227 1492.71 92.0229 1511.51 95.0229C1533.51 98.5229 1550.81 106.523 1562.91 118.623C1474.61 110.023 1386.01 118.623 1299.61 144.123C1274.11 151.623 1248.41 163.323 1223.51 174.723C1200.21 185.423 1176.21 196.323 1152.01 204.123C1124.81 212.923 1100.51 216.423 1077.71 215.023C1018.01 211.323 999.807 184.123 976.807 149.723C967.907 136.323 958.707 122.523 946.007 108.323C934.907 95.8228 920.007 86.623 901.707 81.0229C887.807 76.7227 872.207 74.5229 855.407 74.5229C852.207 74.5229 849.107 74.623 846.007 74.623C830.207 75.4229 813.707 78.0229 797.607 82.2227C801.944 80.8076 806.345 79.4756 810.77 78.2554ZM460.504 214.575C474.399 217.275 488.439 219.579 502.407 220.723C531.107 223.123 547.707 218.123 567.007 211.223C556.807 212.823 547.407 214.223 539.707 215.323L537.507 215.623C492.707 222.223 477.807 203.023 460.707 180.723C460.502 180.457 460.297 180.19 460.092 179.923C451.059 178.168 442.08 176.238 433.207 174.323C420.807 171.623 408.007 168.923 395.407 166.723C360.32 160.639 324.433 156.58 288.395 153.6C272.111 158.907 255.626 163.502 239.607 164.723C225.507 165.823 212.307 166.123 199.607 166.423C170.907 167.123 143.807 167.723 112.507 177.123L111.107 177.523L109.936 177.871C88.2344 184.325 69.5005 189.896 52.4072 188.423C43.207 187.623 35.0068 184.923 27.1069 180.123C18.707 174.923 10.707 167.323 2.60693 156.823C0.307129 166.323 -0.393066 174.523 0.606934 181.223C1.60693 187.523 4.10693 192.723 8.10693 196.523C28.3071 216.223 83.207 201.123 123.207 190.023C141.107 185.023 156.507 180.823 164.607 180.823L165.607 180.823L167.607 180.923C207.195 182.866 247.501 184.836 287.625 188.136C292.919 186.414 298.188 184.612 303.407 182.823C321.907 176.523 340.907 170.023 359.607 167.323C369.707 165.923 378.807 165.623 387.507 166.523C397.307 167.623 406.307 170.123 415.007 174.223C437.069 184.564 449.528 200.436 460.504 214.575ZM288.64 188.22C293.621 186.594 298.583 184.903 303.507 183.223C321.907 176.923 341.007 170.423 359.607 167.723C369.607 166.223 378.707 166.023 387.407 166.923C397.107 167.923 406.107 170.423 414.807 174.523C436.712 184.791 449.15 200.414 459.976 214.472C450.97 212.715 442.028 210.796 433.207 208.923C420.807 206.223 408.007 203.523 395.407 201.323C360.4 195.253 324.595 191.198 288.64 188.22ZM288.15 188.379C324.271 191.361 360.241 195.425 395.407 201.523C408.007 203.723 420.807 206.423 433.207 209.123C442.109 211.044 451.119 212.981 460.182 214.741C460.357 214.969 460.533 215.196 460.707 215.423C477.807 237.723 492.707 256.923 537.507 250.323L539.707 250.023C547.407 248.923 556.807 247.523 567.007 245.923C547.707 252.823 531.107 257.823 502.407 255.423C479.207 253.523 455.807 248.423 433.207 243.623C420.807 240.923 408.007 238.223 395.407 236.023C321.007 223.123 243.007 219.323 167.607 215.623L165.607 215.523L164.607 215.523C156.507 215.523 141.107 219.823 123.207 224.723C83.207 235.823 28.3071 250.923 8.10693 231.223C4.10693 227.423 1.60693 222.223 0.606934 215.923C-0.393066 209.223 0.307129 201.023 2.60693 191.523C10.707 202.023 18.707 209.623 27.1069 214.823C35.0068 219.623 43.207 222.323 52.4072 223.123C69.5005 224.596 88.2344 219.025 109.936 212.571L111.107 212.223L112.507 211.823C143.807 202.423 170.907 201.823 199.607 201.123C212.307 200.823 225.507 200.523 239.607 199.423C255.546 198.208 271.945 193.653 288.15 188.379ZM8.10693 127.023C28.3071 146.723 83.207 131.623 123.207 120.523C141.107 115.523 156.507 111.323 164.607 111.323L165.607 111.323L167.607 111.423C207.276 113.37 247.665 115.344 287.871 118.656C293.082 116.958 298.269 115.185 303.407 113.423C321.907 107.123 340.907 100.623 359.607 97.9229C369.707 96.5229 378.807 96.2227 387.507 97.123C397.307 98.2227 406.307 100.723 415.007 104.823C437.008 115.136 449.459 130.948 460.413 145.057C474.337 147.765 488.409 150.077 502.407 151.223C531.107 153.623 547.707 148.623 567.007 141.723C556.807 143.323 547.407 144.723 539.707 145.823L537.507 146.123C492.707 152.723 477.807 133.523 460.707 111.223C449.707 96.9229 437.207 80.8228 414.807 70.3228C406.107 66.2227 397.107 63.7227 387.407 62.7227C378.707 61.8228 369.607 62.0229 359.607 63.5229C341.007 66.2227 321.907 72.7227 303.507 79.0229C282.407 86.2227 260.607 93.623 239.607 95.2227C225.507 96.3228 212.307 96.623 199.607 96.9229C170.907 97.623 143.807 98.2227 112.507 107.623L111.107 108.023C110.716 108.139 110.325 108.255 109.936 108.371C88.2344 114.825 69.5005 120.396 52.4072 118.923C43.207 118.123 35.0068 115.423 27.1069 110.623C18.707 105.423 10.707 97.8228 2.60693 87.3228C0.521484 95.938 -0.248535 103.484 0.37207 109.812C0.437988 110.393 0.516602 110.963 0.606934 111.523C1.50684 117.923 4.10693 123.123 8.10693 127.023ZM740.107 37.2227C754.207 28.3228 771.607 20.623 790.507 15.0229C766.607 23.5229 744.307 35.0229 727.307 47.8228C731.107 43.9229 735.307 40.3228 740.107 37.2227ZM720.107 53.9229C721.807 52.4229 723.607 51.0229 725.507 49.5229C717.307 58.5229 711.107 69.3228 705.007 79.7227C696.907 93.623 689.307 106.723 677.907 114.923C668.607 121.523 658.707 123.923 648.207 125.023C650.207 124.423 652.107 123.723 653.907 123.123C673.207 116.123 683.407 101.123 694.307 85.123C701.707 74.3228 709.307 63.2227 720.107 53.9229ZM740.107 72.0229C754.207 63.123 771.607 55.4229 790.507 49.8228C766.607 58.3228 744.307 69.8228 727.307 82.623C731.107 78.7227 735.307 75.123 740.107 72.0229ZM720.107 88.623C721.807 87.123 723.607 85.7227 725.507 84.2227C717.307 93.3228 711.107 104.023 705.007 114.423C696.907 128.323 689.307 141.423 677.907 149.623C668.607 156.223 658.707 158.623 648.207 159.723C650.207 159.123 652.107 158.423 653.907 157.823C673.207 150.823 683.407 135.823 694.307 119.823C701.707 109.023 709.307 97.9229 720.107 88.623ZM790.507 84.5229C771.607 90.123 754.207 97.8228 740.107 106.723C735.307 109.823 731.107 113.423 727.307 117.323C744.307 104.523 766.607 93.0229 790.507 84.5229ZM288.64 118.72C293.621 117.094 298.583 115.403 303.507 113.723C321.907 107.423 341.007 100.923 359.607 98.2227C369.607 96.7227 378.707 96.5229 387.407 97.4229C397.107 98.4229 406.107 100.923 414.807 105.023C436.712 115.291 449.15 130.914 459.976 144.972C450.97 143.215 442.028 141.296 433.207 139.423C420.807 136.723 408.007 134.023 395.407 131.823C360.4 125.753 324.595 121.698 288.64 118.72ZM901.707 115.823C887.807 111.523 872.207 109.323 855.407 109.323C852.207 109.323 849.107 109.423 846.007 109.423C830.207 110.223 813.707 112.823 797.607 117.023C807.107 113.923 816.907 111.223 826.607 109.223C848.507 104.623 869.107 103.223 887.807 105.123C908.507 107.223 926.007 113.223 939.807 123.123C960.707 138.023 972.907 156.423 984.807 174.123C994.707 188.823 1004.01 202.823 1017.51 213.623C1032.71 225.823 1051.01 232.323 1075.11 234.023C1079.41 234.323 1083.61 234.423 1087.81 234.423C1140.11 234.423 1191.51 212.223 1241.31 190.623C1267.61 179.223 1292.51 168.423 1317.51 160.723L1318.91 160.323C1348.11 151.323 1397.01 136.223 1444.11 130.223C1470.01 127.023 1492.71 126.823 1511.51 129.823C1533.51 133.323 1550.81 141.323 1562.91 153.423C1474.61 144.823 1386.01 153.423 1299.61 178.923C1274.11 186.423 1248.41 198.123 1223.51 209.523C1200.21 220.223 1176.21 231.123 1152.01 238.923C1124.81 247.723 1100.51 251.223 1077.71 249.823C1018.01 246.123 999.807 218.923 976.807 184.523C967.907 171.123 958.707 157.323 946.007 143.123C934.907 130.623 920.007 121.423 901.707 115.823ZM415.007 139.523C437.008 149.836 449.459 165.648 460.413 179.757C474.337 182.465 488.409 184.776 502.407 185.923C531.107 188.323 547.707 183.323 567.007 176.423C556.807 178.023 547.407 179.423 539.707 180.523L537.507 180.823C492.707 187.423 477.807 168.223 460.707 145.923C460.51 145.667 460.312 145.409 460.114 145.152C451.096 143.406 442.14 141.499 433.307 139.623C420.907 136.923 408.107 134.223 395.507 132.023C360.315 125.921 324.317 121.855 288.17 118.873C271.959 124.149 255.553 128.708 239.607 129.923C225.507 131.023 212.307 131.323 199.607 131.623C170.907 132.323 143.807 132.923 112.507 142.323L111.107 142.723C110.716 142.839 110.326 142.955 109.936 143.071C88.2344 149.525 69.5005 155.096 52.4072 153.623C43.207 152.823 35.0068 150.123 27.1069 145.323C18.707 140.123 10.707 132.523 2.60693 122.023C0.307129 131.523 -0.393066 139.723 0.606934 146.423C1.60693 152.723 4.10693 157.923 8.10693 161.723C28.3071 181.423 83.207 166.323 123.207 155.223C141.107 150.323 156.507 146.023 164.607 146.023L165.607 146.023L167.607 146.123C207.276 148.069 247.665 150.044 287.871 153.356C293.082 151.659 298.269 149.885 303.407 148.123C321.907 141.823 340.907 135.323 359.607 132.623C369.707 131.223 378.807 130.923 387.507 131.823C397.307 132.923 406.307 135.423 415.007 139.523ZM725.507 119.023C723.607 120.523 721.807 121.923 720.107 123.423C709.307 132.723 701.707 143.823 694.307 154.623C683.407 170.623 673.207 185.623 653.907 192.623C652.107 193.223 650.207 193.923 648.207 194.523C658.707 193.423 668.607 191.023 677.907 184.423C689.307 176.223 696.907 163.123 705.007 149.223C711.107 138.823 717.307 128.023 725.507 119.023ZM740.107 141.523C754.207 132.623 771.607 124.923 790.507 119.323C766.607 127.723 744.307 139.323 727.307 152.123C731.107 148.223 735.307 144.623 740.107 141.523ZM633.407 126.323C637.807 126.123 642.107 125.923 646.307 125.523C626.007 131.623 595.307 137.023 569.107 141.223C570.107 140.823 571.107 140.523 572.107 140.123C581.307 136.723 590.807 133.323 602.607 130.123C612.907 127.323 623.307 126.823 633.407 126.323ZM433.207 174.123C441.998 175.99 450.91 177.902 459.885 179.654C449.08 165.627 436.651 150.062 414.807 139.823C406.107 135.723 397.107 133.223 387.407 132.223C378.707 131.323 369.607 131.523 359.607 133.023C341.007 135.723 321.907 142.223 303.507 148.523C298.664 150.176 293.783 151.839 288.884 153.44C324.757 156.417 360.479 160.467 395.407 166.523C408.007 168.723 420.807 171.423 433.207 174.123ZM720.107 158.123C721.807 156.623 723.607 155.223 725.507 153.723C717.307 162.823 711.107 173.523 705.007 184.023C696.907 197.923 689.307 211.023 677.907 219.223C668.607 225.823 658.707 228.223 648.207 229.323C650.207 228.723 652.107 228.023 653.907 227.423C673.207 220.423 683.407 205.423 694.307 189.423C701.707 178.623 709.307 167.423 720.107 158.123ZM633.407 161.023C637.807 160.823 642.107 160.623 646.307 160.223C626.007 166.323 595.307 171.723 569.107 175.923C570.107 175.523 571.107 175.223 572.107 174.823C581.307 171.423 590.807 168.023 602.607 164.823C612.907 162.023 623.307 161.523 633.407 161.023ZM646.307 195.023C642.107 195.423 637.807 195.623 633.407 195.823C623.307 196.323 612.907 196.823 602.607 199.623C590.807 202.823 581.307 206.223 572.107 209.623C571.107 210.023 570.107 210.323 569.107 210.723C595.307 206.523 626.007 201.123 646.307 195.023ZM633.407 230.523C637.807 230.323 642.107 230.123 646.307 229.723C626.007 235.823 595.307 241.223 569.107 245.423C570.107 245.023 571.107 244.723 572.107 244.323C581.307 240.923 590.807 237.523 602.607 234.323C612.907 231.523 623.307 231.023 633.407 230.523Z" fill="#E21A43" fill-opacity="0.500000" fill-rule="evenodd"/>
</svg>
