<svg width="34.000000" height="24.000000" viewBox="0 0 34 24" fill="none" xmlns="http://www.w3.org/2000/svg" xmlns:xlink="http://www.w3.org/1999/xlink">
	<desc>
			Created with Pixso.
	</desc>
	<defs/>
	<rect id="Payment Method" width="34.000000" height="24.000000" fill="#FFFFFF" fill-opacity="0"/>
	<rect id="BASE" x="0.500000" y="0.500000" rx="4.000000" width="33.000000" height="23.000000" fill="#FFFFFF" fill-opacity="1.000000"/>
	<rect id="BASE" x="0.500000" y="0.500000" rx="4.000000" width="33.000000" height="23.000000" stroke="#D9D9D9" stroke-opacity="1.000000" stroke-width="1.000000"/>
	<path id="Payoneer" d="M4 14.4062C4.04395 14.1694 4.0791 13.9517 4.12305 13.7334C4.34961 12.5371 4.5791 11.3438 4.80566 10.147C4.82129 10.0713 4.84375 10.0205 4.91895 10.0083C5.50781 9.91943 6.09961 9.85645 6.68848 10.0049C7.20117 10.1313 7.55957 10.4941 7.62012 10.9204C7.63281 11.0078 7.63867 11.0933 7.63867 11.1768C7.63867 11.9048 7.17285 12.4736 6.51465 12.6919C6.12793 12.8179 5.73438 12.8496 5.33496 12.8115C5.24023 12.8022 5.21191 12.8276 5.19629 12.9189C5.11133 13.3833 5.02344 13.8442 4.93164 14.3052C4.92578 14.3428 4.89062 14.4028 4.86914 14.4028C4.65527 14.4077 4.44434 14.4072 4.22559 14.4067L4.22559 14.4067C4.15137 14.4062 4.07617 14.4062 4 14.4062ZM5.35352 12.0601C5.41504 12.0601 5.47461 12.062 5.5332 12.0635L5.5332 12.0635C5.65625 12.0669 5.77246 12.0698 5.88574 12.0571C6.21289 12.0225 6.47363 11.874 6.62207 11.5615C6.67285 11.4531 6.69727 11.3428 6.69727 11.2388C6.69727 11.0024 6.57324 10.7983 6.35449 10.7217C6.13086 10.6426 5.90137 10.6587 5.67188 10.6899C5.64355 10.6934 5.60547 10.7373 5.59863 10.7656C5.52051 11.1792 5.44141 11.5962 5.35352 12.0601ZM22.2285 13.1431C22.2275 13.1582 22.2266 13.1729 22.2266 13.1875C22.2266 13.4922 22.4453 13.707 22.7637 13.7461C23.0879 13.7842 23.3994 13.7334 23.7012 13.6167C23.7334 13.604 23.7676 13.5913 23.8018 13.5791C23.8057 13.5771 23.8105 13.5771 23.8193 13.5781C23.8252 13.5786 23.833 13.5791 23.8428 13.5791C23.8623 13.7715 23.8838 13.9639 23.8936 14.1567L23.8936 14.1606C23.8936 14.1987 23.8516 14.2549 23.8145 14.2705C23.2891 14.4849 22.7441 14.561 22.1904 14.4189C21.6748 14.2861 21.3906 13.9136 21.334 13.3926C21.3232 13.2925 21.3174 13.1938 21.3174 13.0967C21.3174 12.4844 21.5439 11.9468 22.0361 11.5269C22.5049 11.1255 23.0566 10.9995 23.6543 11.1792C24.0537 11.2993 24.2773 11.5991 24.3057 12.0127C24.3076 12.041 24.3086 12.0688 24.3086 12.0962C24.3086 12.4629 24.1318 12.7461 23.7803 12.9224C23.4844 13.0708 23.166 13.124 22.8418 13.1431C22.708 13.1494 22.5732 13.1475 22.4365 13.1455C22.3672 13.144 22.2979 13.1431 22.2285 13.1431ZM9.58105 13.7998C9.42383 13.9639 9.29785 14.1313 9.13672 14.2544C8.80664 14.5103 8.42871 14.5669 8.04785 14.3901C7.66992 14.2168 7.51562 13.8789 7.5 13.481C7.49805 13.437 7.49707 13.3936 7.49707 13.3506C7.49707 12.5723 7.79492 11.9277 8.45996 11.4731C8.90137 11.1699 9.4082 11.0781 9.93359 11.1069C10.2012 11.1226 10.4658 11.1855 10.7334 11.2236C10.8154 11.2358 10.8438 11.2739 10.8438 11.333C10.8438 11.3506 10.8408 11.3701 10.8369 11.3911C10.7168 12.0161 10.5908 12.6382 10.4902 13.2632C10.4375 13.5947 10.4209 13.9355 10.3994 14.2705C10.3926 14.3716 10.3682 14.4126 10.2637 14.4092Q10.1172 14.4043 9.97168 14.4043L9.9707 14.4043Q9.82422 14.4043 9.67871 14.4092C9.58789 14.4121 9.55078 14.3818 9.55078 14.3052C9.55078 14.2964 9.55176 14.2866 9.55273 14.2769C9.56543 14.125 9.57129 13.9673 9.58105 13.7998ZM27.498 14.4062C27.5381 14.1724 27.5762 13.9609 27.6172 13.7461C27.7812 12.9287 27.9473 12.1108 28.0166 11.2739C28.0205 11.2393 28.0674 11.1826 28.0928 11.1792C28.2715 11.1748 28.4492 11.1753 28.6357 11.1758C28.6992 11.1763 28.7637 11.1763 28.8291 11.1763C28.8105 11.4004 28.7949 11.6118 28.7783 11.8203C29.0684 11.394 29.4023 11.0469 30 11.1099C29.9404 11.4097 29.8896 11.6875 29.8301 11.9624C29.8242 11.9844 29.7832 12.0127 29.7578 12.0161C29.1377 12.0981 28.876 12.3193 28.7217 12.957C28.6152 13.3989 28.543 13.8535 28.4512 14.3018C28.4453 14.3398 28.4102 14.3999 28.3887 14.3999C28.1572 14.4072 27.9268 14.4067 27.6846 14.4062C27.623 14.4062 27.5605 14.4062 27.498 14.4062ZM18.2246 11.1855L19.0244 11.1855C19.0117 11.3564 18.999 11.5205 18.9834 11.6875C19.0742 11.6025 19.1562 11.5205 19.2412 11.4478C19.5527 11.1763 19.9082 11.0562 20.3213 11.1226C20.6611 11.1792 20.8965 11.4287 20.9346 11.7793C20.9434 11.856 20.9473 11.9321 20.9473 12.0078C20.9473 12.2925 20.8936 12.5718 20.8398 12.8506C20.834 12.8765 20.8291 12.9023 20.8242 12.9287C20.7363 13.3862 20.6514 13.8442 20.5605 14.2988C20.5508 14.3398 20.5039 14.3999 20.4717 14.4028C20.2012 14.4092 19.9307 14.4062 19.6602 14.4028C19.6475 14.4028 19.6348 14.3936 19.6094 14.3809C19.6602 14.1187 19.71 13.8535 19.7578 13.5884C19.8301 13.1812 19.8994 12.7769 19.9619 12.3696C19.9668 12.3418 19.9688 12.3135 19.9688 12.2852C19.9688 12.2427 19.9648 12.1997 19.959 12.1582C19.9336 11.915 19.7539 11.8047 19.5215 11.877C19.2949 11.9497 19.1592 12.1265 19.0488 12.3223C18.8857 12.6099 18.8291 12.9287 18.7725 13.2476C18.709 13.5977 18.6494 13.9453 18.5801 14.2954C18.5703 14.3364 18.5234 14.3999 18.4922 14.4028C18.2715 14.4106 18.0488 14.4102 17.8115 14.4097L17.8115 14.4097C17.751 14.4092 17.6895 14.4092 17.626 14.4092C17.834 13.3232 18.0293 12.2593 18.2246 11.1855ZM15.7441 14.4819C14.9102 14.4819 14.4346 14.1724 14.2617 13.6167C14.2119 13.4595 14.1875 13.2871 14.1875 13.1084C14.1875 12.2476 14.7578 11.2451 15.873 11.1191C16.2764 11.0752 16.6533 11.1255 16.9844 11.3721C17.2988 11.6055 17.4531 11.9341 17.4756 12.3223C17.4785 12.3755 17.4805 12.4277 17.4805 12.48C17.4805 12.8271 17.4062 13.1587 17.2422 13.4717C16.8867 14.1406 16.3174 14.4658 15.7441 14.4819ZM25.373 13.1558C25.3711 13.1738 25.3701 13.1914 25.3701 13.209C25.3701 13.4922 25.584 13.7046 25.9014 13.7461C26.2168 13.7842 26.5186 13.7368 26.8145 13.6294C26.8652 13.6104 26.9121 13.5918 26.9785 13.5664C26.9971 13.7715 27.0225 13.9644 27.0322 14.1567L27.0322 14.1606C27.0322 14.1987 26.9893 14.2549 26.9561 14.2705C26.4209 14.4912 25.8701 14.5674 25.3066 14.4126C24.7998 14.2734 24.5352 13.9043 24.4727 13.3989C24.46 13.2964 24.4541 13.1958 24.4541 13.0967C24.4541 12.5693 24.6318 12.0918 25.0107 11.6875C25.4961 11.1733 26.0908 10.9897 26.7764 11.1792C27.1953 11.2964 27.4189 11.5991 27.4443 12.0254C27.4453 12.0503 27.4463 12.0742 27.4463 12.0981C27.4463 12.4785 27.2568 12.7656 26.8867 12.938C26.4902 13.1211 26.0684 13.1494 25.6406 13.1592C25.5557 13.1558 25.4678 13.1558 25.373 13.1558ZM25.4639 12.4834C25.666 12.4707 25.8545 12.4678 26.04 12.4424C26.166 12.4268 26.292 12.3887 26.4053 12.335C26.5137 12.2876 26.5723 12.1943 26.5723 12.0781C26.5723 12.062 26.5713 12.0454 26.5693 12.0288C26.5498 11.896 26.4619 11.833 26.3389 11.8013C25.9678 11.7002 25.5049 12.0415 25.4639 12.4834ZM22.3193 12.458C22.5615 12.5088 23.0596 12.4487 23.251 12.3477C23.3672 12.2871 23.4316 12.1948 23.4316 12.0845C23.4316 12.0684 23.4307 12.0518 23.4277 12.0352C23.4053 11.8994 23.3145 11.833 23.1885 11.8013C22.8135 11.71 22.3701 12.0381 22.3193 12.458ZM9.80078 11.8486C9.49609 11.7637 9.24121 11.8232 9.02734 12.0034C8.65625 12.3174 8.47168 12.7168 8.47168 13.1895C8.47168 13.23 8.47363 13.2715 8.47559 13.3135C8.48535 13.4746 8.54883 13.6294 8.71875 13.6987C8.88867 13.7681 9.04297 13.7178 9.1748 13.604C9.25391 13.5347 9.3291 13.4556 9.38574 13.3672C9.68457 12.9097 9.69141 12.3726 9.80078 11.8486ZM15.1582 13.1055C15.1582 13.1211 15.1582 13.1372 15.1582 13.1533C15.1572 13.1694 15.1572 13.186 15.1572 13.2021C15.1572 13.2188 15.1572 13.2349 15.1582 13.2505C15.1836 13.582 15.4199 13.7935 15.7314 13.7651C15.9043 13.7495 16.04 13.6577 16.1475 13.5254C16.3906 13.2144 16.5039 12.8628 16.5039 12.4829C16.5039 12.4268 16.501 12.3701 16.4961 12.313C16.4648 11.9497 16.1914 11.7573 15.8574 11.833C15.6934 11.8706 15.5713 11.9717 15.4736 12.1045C15.2559 12.4043 15.168 12.7422 15.1582 13.1055Z" clip-rule="evenodd" fill="#000000" fill-opacity="1.000000" fill-rule="evenodd"/>
	<path id="Payoneer" d="M19.1875 7.35303C19.2725 7.37207 19.3574 7.40039 19.4424 7.41309C19.7959 7.46973 20.0791 7.65918 20.3213 7.90869C20.3809 7.96875 20.4404 8.08887 20.415 8.15186C20.3867 8.22119 20.2734 8.2876 20.1885 8.30029C19.3955 8.41699 18.624 8.62549 17.8848 8.93164C17.457 9.1084 17.0381 9.32324 16.6289 9.54102C15.7383 10.021 15.0283 10.6562 14.3203 11.3667C13.5713 12.1177 12.8574 12.9697 12.2471 13.8379C11.8662 14.3779 11.5977 14.8179 11.2578 15.3862C11.0879 15.6704 10.8906 16.1079 10.752 16.4111C10.7305 16.4556 10.6826 16.5342 10.667 16.5278C10.6074 16.5093 10.5195 16.4741 10.5029 16.4268C10.4658 16.3101 10.4277 16.1743 10.4502 16.0576C10.5693 15.4229 10.834 14.8389 11.127 14.2676C11.6963 13.1626 12.4111 12.1553 13.2451 11.2397C13.7207 10.7188 14.2109 10.2104 14.7178 9.72412C15.4795 8.98828 16.3301 8.3667 17.2773 7.88672C17.7148 7.66553 18.168 7.49805 18.6494 7.40674C18.7314 7.39111 18.8105 7.37207 18.8887 7.35596C18.9932 7.35303 19.0898 7.35303 19.1875 7.35303ZM12.0771 11.6846C12.2285 11.2744 12.3037 10.8481 12.3135 10.4062C12.3008 10.2642 12.2949 10.1221 12.2754 9.97998C12.1904 9.24756 11.876 8.62549 11.375 8.0918C11.3154 8.03174 11.2334 7.98438 11.1514 7.95605C11.0703 7.92432 11.0166 7.97168 11.0225 8.06641C11.0293 8.14844 11.0352 8.23389 11.0508 8.31592C11.1514 8.89062 11.249 9.46826 11.3594 10.043C11.4443 10.4946 11.5391 10.9429 11.6396 11.3882C11.6748 11.5303 11.7314 11.6724 11.7998 11.8047C11.8535 11.9058 11.9297 11.8965 11.999 11.8047C12.0303 11.7671 12.0615 11.729 12.0771 11.6846Z" clip-rule="evenodd" fill="#FC461E" fill-opacity="1.000000" fill-rule="evenodd"/>
</svg>
