<svg width="34.000000" height="24.000000" viewBox="0 0 34 24" fill="none" xmlns="http://www.w3.org/2000/svg" xmlns:xlink="http://www.w3.org/1999/xlink">
	<desc>
			Created with Pixso.
	</desc>
	<defs/>
	<rect id="Payment Method" width="34.000000" height="24.000000" fill="#FFFFFF" fill-opacity="0"/>
	<rect id="Payment Method" width="34.000000" height="24.000000" fill="#FFFFFF" fill-opacity="0"/>
	<rect id="BASE" x="0.500000" y="0.500000" rx="4.000000" width="33.000000" height="23.000000" fill="#FFFFFF" fill-opacity="1.000000"/>
	<rect id="BASE" x="0.500000" y="0.500000" rx="4.000000" width="33.000000" height="23.000000" stroke="#D9D9D9" stroke-opacity="1.000000" stroke-width="1.000000"/>
	<path id="Amazon" d="M27.2939 13.9482L28.1328 13.9482C28.2207 13.9497 28.2939 13.8774 28.2969 13.7852L28.2969 11.3418C28.2969 11.0347 28.3125 10.7578 28.4297 10.4805C28.5107 10.2695 28.7012 10.1279 28.917 10.1172C29.4541 10.1172 29.4482 10.7354 29.4443 11.2207C29.4443 11.2617 29.4434 11.3018 29.4434 11.3403L29.4434 13.8057C29.4541 13.8848 29.5166 13.9448 29.5928 13.9482L30.4385 13.9482C30.5186 13.9497 30.5879 13.8892 30.6006 13.8057L30.6006 10.9487C30.6006 10.5093 30.6006 9.89795 30.3809 9.53467C30.1436 9.14307 29.7754 9 29.3984 9C28.8174 9 28.4873 9.2959 28.252 9.91699L28.2354 9.91699L28.2354 9.22217C28.2188 9.1499 28.1582 9.09814 28.0869 9.0957L27.3066 9.0957C27.2236 9.09326 27.1533 9.1582 27.1445 9.24414L27.1445 13.7852C27.1455 13.8721 27.2109 13.9434 27.2939 13.9482ZM26.5039 11.5664C26.5039 10.1338 25.8291 9.00635 24.5801 9.00635C23.3633 9.00635 22.6875 10.1147 22.6875 11.5186C22.6875 12.9224 23.3545 14.0498 24.5801 14.0498C25.7598 14.0498 26.5039 12.9517 26.5039 11.5664ZM8.19141 13.9575L9.0332 13.9575C9.0752 13.9585 9.11621 13.9419 9.14648 13.9111C9.17676 13.8804 9.19434 13.8384 9.19531 13.7939L9.19531 11.3877L9.19531 11.3501C9.19531 10.8271 9.19434 10.1353 9.77637 10.1353C10.3145 10.1353 10.3057 10.7432 10.2988 11.2339C10.2979 11.2871 10.2979 11.3384 10.2979 11.3877L10.2979 13.7944C10.2988 13.8813 10.3643 13.9526 10.4463 13.9575L11.29 13.9575C11.332 13.9585 11.3721 13.9414 11.4023 13.9106C11.4326 13.8804 11.4502 13.8379 11.4512 13.7939L11.4512 11.3877C11.4512 11.3696 11.4512 11.3506 11.4512 11.3306C11.4502 11.0757 11.4502 10.7319 11.5303 10.5181C11.6123 10.2998 11.8096 10.1533 12.0332 10.146C12.2764 10.146 12.4648 10.2324 12.5273 10.5376C12.5596 10.6846 12.5557 11.0254 12.5527 11.251C12.5518 11.3047 12.5508 11.3516 12.5508 11.3877L12.5508 13.7944C12.5527 13.8818 12.6172 13.9531 12.7002 13.9575L13.541 13.9575C13.583 13.9585 13.624 13.9419 13.6543 13.9111C13.6846 13.8804 13.7021 13.8384 13.7031 13.7939L13.7031 10.9292C13.7031 10.8594 13.7041 10.7881 13.7061 10.7158C13.7129 10.2881 13.7197 9.83252 13.4912 9.50586C13.2139 9.13477 12.7676 8.9502 12.3242 9.02246C11.8809 9.09473 11.5088 9.4126 11.3516 9.854C11.1152 9.28027 10.7783 9.01318 10.2598 9.01318C9.74121 9.01318 9.35645 9.28027 9.15234 9.854L9.13672 9.854L9.13672 9.26172C9.13184 9.17725 9.06836 9.10938 8.9873 9.10498L8.20312 9.10498C8.11719 9.104 8.04492 9.17578 8.04199 9.26709L8.04199 13.8081C8.0498 13.8896 8.11328 13.9531 8.19141 13.9575ZM18.4062 13.1685C18.252 12.9453 18.0889 12.7637 18.0889 12.3491L18.0889 10.9712C18.0889 10.9243 18.0889 10.877 18.0889 10.8306C18.0918 10.3013 18.0947 9.81836 17.7158 9.44873C17.3936 9.12305 16.8594 9.00879 16.4502 9.00879C15.6494 9.00879 14.7559 9.32178 14.5684 10.3623C14.5605 10.4048 14.5693 10.4487 14.5928 10.4834C14.6172 10.5186 14.6533 10.542 14.6943 10.5479L15.5098 10.6401C15.5879 10.6274 15.6494 10.5605 15.6582 10.4775C15.7295 10.1196 16.0137 9.94678 16.335 9.94678C16.5078 9.94678 16.707 10.0137 16.8066 10.1768C16.9131 10.3398 16.9111 10.5566 16.9102 10.7515C16.9102 10.7739 16.9092 10.7964 16.9092 10.8179L16.9092 10.9297C16.4219 10.9873 15.7832 11.0254 15.3281 11.2358C14.8008 11.4756 14.4307 11.9634 14.4307 12.6821C14.4307 13.6006 14.9814 14.0601 15.6895 14.0601C16.2852 14.0601 16.6143 13.9121 17.0762 13.4175C17.2295 13.6523 17.2793 13.7627 17.5586 14.0068C17.623 14.0444 17.7021 14.0361 17.7578 13.9863C17.9258 13.8301 18.2305 13.5503 18.4023 13.3994C18.4746 13.3452 18.4629 13.2495 18.4062 13.1685ZM6.72754 13.9917C6.67285 14.0425 6.59277 14.0508 6.5293 14.0132C6.25 13.769 6.19922 13.6562 6.04688 13.4233C5.58496 13.9185 5.25781 14.0664 4.66016 14.0664C3.95117 14.0664 3.40039 13.6069 3.40039 12.6875C3.40039 11.9697 3.77246 11.4819 4.29395 11.2422C4.75098 11.0317 5.3877 10.9932 5.87598 10.9355L5.87598 10.8213C5.87598 10.7993 5.87598 10.7769 5.87598 10.7544C5.87793 10.5596 5.87988 10.3428 5.77441 10.1792C5.6709 10.0161 5.47559 9.94971 5.30176 9.94971C4.98047 9.94971 4.69434 10.1226 4.625 10.4805C4.61621 10.564 4.55469 10.6309 4.47559 10.6436L3.66699 10.5503C3.62695 10.5439 3.59082 10.521 3.56641 10.4858C3.54297 10.4512 3.53418 10.4077 3.54199 10.3652C3.72852 9.32568 4.62207 9.01172 5.42285 9.01172C5.83301 9.01172 6.36719 9.12598 6.68945 9.45166C7.06738 9.82324 7.06445 10.3101 7.0625 10.8418C7.06152 10.8857 7.06152 10.9302 7.06152 10.9746L7.06152 12.3516C7.06152 12.7666 7.22559 12.9482 7.37988 13.1714C7.43359 13.2495 7.44531 13.3477 7.37988 13.4062C7.20801 13.5576 6.90234 13.8359 6.73438 13.9937L6.72754 13.9917ZM19.1182 9.25146L19.1182 9.90039C19.1182 9.94385 19.1357 9.98535 19.165 10.0161C19.1953 10.0469 19.2363 10.0635 19.2783 10.0615L20.7266 10.0615L19.0664 12.5669C18.9902 12.7012 18.9551 12.8564 18.9639 13.0127L18.9639 13.6738C18.9639 13.7695 19.0645 13.8784 19.1602 13.8242C20.0762 13.3252 21.165 13.3232 22.082 13.8188C22.1865 13.876 22.2861 13.7656 22.2861 13.6699L22.2861 12.9751C22.2832 12.8687 22.2266 12.772 22.1367 12.7222C21.6533 12.436 21.0918 12.3525 20.5596 12.3657L21.9922 10.2158C22.126 10.0234 22.2002 9.90137 22.2002 9.80811L22.2002 9.25146C22.2012 9.20703 22.1836 9.16455 22.1543 9.13379C22.124 9.10303 22.083 9.08594 22.041 9.08789L19.2754 9.08789C19.2334 9.08496 19.1924 9.10156 19.1621 9.13281C19.1328 9.16406 19.1162 9.20703 19.1182 9.25146ZM24.5879 9.93311C23.9678 9.93311 23.9277 10.8213 23.9277 11.3755L23.9277 11.3936C23.9277 11.9556 23.9277 13.1133 24.5801 13.1133C25.2393 13.1133 25.2637 12.1582 25.2637 11.5757C25.2637 11.1938 25.248 10.7349 25.1377 10.3726C25.043 10.0591 24.8545 9.93311 24.5879 9.93311ZM16.1709 13.1729C16.4072 13.1729 16.6201 13.0195 16.7529 12.7715C16.9111 12.4751 16.9111 12.1973 16.9111 11.8677L16.9111 11.8325L16.9111 11.6416C16.3027 11.6416 15.6602 11.7778 15.6602 12.5317C15.6602 12.9146 15.8486 13.1729 16.1709 13.1729ZM5.87988 11.8374L5.87988 11.6455C5.27148 11.6455 4.62891 11.7827 4.62891 12.5356C4.62891 12.9194 4.81738 13.1777 5.13965 13.1777C5.37598 13.1777 5.58887 13.0244 5.72266 12.7754C5.87988 12.4805 5.87988 12.2041 5.87988 11.8784L5.87988 11.8374Z" clip-rule="evenodd" fill="#000000" fill-opacity="1.000000" fill-rule="evenodd"/>
	<path id="Smile" d="M20.501 16.8452C20.6924 16.3447 21.1182 15.2236 20.916 14.9517L20.917 14.9517C20.7158 14.6797 19.583 14.8223 19.0742 14.8867L19.0732 14.8867C18.918 14.9062 18.8945 14.7646 19.0342 14.6621C19.9375 13.9941 21.4189 14.1855 21.5908 14.4111C21.7637 14.6362 21.5439 16.1978 20.6973 16.9429C20.5674 17.0571 20.4424 16.9961 20.501 16.8452ZM20.2588 15.7378C18.6797 16.9634 16.3857 17.6172 14.417 17.6172C11.7822 17.6313 9.23828 16.6104 7.28223 14.7554C7.13281 14.6152 7.26562 14.4233 7.44336 14.5322C9.47559 15.7749 11.9873 16.5234 14.583 16.5234C16.4541 16.5127 18.3057 16.1133 20.0293 15.3486C20.2959 15.23 20.5205 15.5337 20.2588 15.7402L20.2588 15.7378Z" clip-rule="evenodd" fill="#FF9900" fill-opacity="1.000000" fill-rule="evenodd"/>
</svg>
