<svg width="50" height="50" viewBox="0 0 50 50" fill="none" xmlns="http://www.w3.org/2000/svg">
<rect width="50" height="50" fill="#E21A43"/>
<path fill-rule="evenodd" clip-rule="evenodd" d="M25.169 17.4571C21.4795 17.4571 18.4885 20.385 18.4885 23.9967C18.4885 27.6084 21.4795 30.5363 25.169 30.5363C28.8585 30.5363 31.8494 27.6084 31.8494 23.9967C31.8494 20.385 28.8585 17.4571 25.169 17.4571ZM17 23.9967C17 19.5802 20.6574 16 25.169 16C29.6806 16 33.3379 19.5802 33.3379 23.9967C33.3379 26.0386 32.5562 27.9017 31.2697 29.3149L33.7695 31.7556C34.0605 32.0397 34.0611 32.501 33.7709 32.7859C33.4806 33.0708 33.0093 33.0714 32.7183 32.7873L30.1821 30.311C28.7982 31.3654 27.0585 31.9934 25.169 31.9934C20.6574 31.9934 17 28.4132 17 23.9967Z" fill="white"/>
</svg>
