<svg width="20.000000" height="20.000000" viewBox="0 0 20 20" fill="none" xmlns="http://www.w3.org/2000/svg" xmlns:xlink="http://www.w3.org/1999/xlink">
	<desc>
			Created with Pixso.
	</desc>
	<defs/>
	<path id="Vector" d="M3.46289 2.43311C5.27734 0.860596 7.59912 -0.00341797 10 0C15.5229 0 20 4.47705 20 10C20 12.136 19.3301 14.116 18.1899 15.74L15 10L18 10C18 8.43164 17.5391 6.89771 16.6748 5.58936C15.8101 4.28076 14.5801 3.25513 13.1372 2.64014C11.6943 2.02515 10.1025 1.84766 8.56006 2.13013C7.01709 2.41235 5.59131 3.14185 4.45996 4.22803L3.46289 2.43311ZM16.5371 17.5669C14.7227 19.1394 12.4009 20.0034 10 20C4.47705 20 0 15.5229 0 10C0 7.86401 0.669922 5.88403 1.81006 4.26001L5 10L2 10C2 11.5684 2.46094 13.1023 3.3252 14.4106C4.18994 15.7192 5.41992 16.7449 6.86279 17.3599C8.30566 17.9749 9.89746 18.1523 11.4399 17.8699C12.9829 17.5876 14.4087 16.8582 15.54 15.772L16.5371 17.5669Z" fill="#333333" fill-opacity="1.000000" fill-rule="nonzero"/>
</svg>
