<svg width="178.000000" height="52.000000" viewBox="0 0 178 52" fill="none" xmlns="http://www.w3.org/2000/svg" xmlns:xlink="http://www.w3.org/1999/xlink">
	<desc>
			Created with Pixso.
	</desc>
	<defs/>
	<path id="Vector" d="M178 46.7876C178 49.6675 175.708 52 172.874 52L5.13232 52C2.29932 52 0 49.6675 0 46.7876L0 5.21924C0 2.34082 2.29932 0 5.13232 0L172.873 0C175.708 0 177.999 2.34082 177.999 5.21924L178 46.7876Z" fill="#333333" fill-opacity="1.000000" fill-rule="nonzero"/>
	<path id="Vector" d="M36.645 8.10107C36.8667 10.063 36.0693 11.9961 34.9038 13.417C33.688 14.8154 31.7427 15.8853 29.8477 15.7476C29.5996 13.8599 30.5596 11.853 31.6343 10.6284C32.8491 9.23877 34.9585 8.17383 36.645 8.10107ZM42.8477 19.4175C42.6362 19.5405 39.1318 21.5796 39.1704 25.7383C39.2144 30.7603 43.6758 32.4204 43.7305 32.4385C43.7036 32.5552 43.0317 34.8345 41.3584 37.1484C39.9609 39.1855 38.4971 41.1768 36.1719 41.2134C35.0664 41.2383 34.3198 40.9282 33.542 40.6055C32.7305 40.2686 31.8853 39.9175 30.5625 39.9175C27.9478 39.9175 27.1387 41.1768 24.9717 41.2642C22.7573 41.3433 21.0649 39.0894 19.6172 37.0703C16.7227 32.9478 14.4692 25.4536 17.4902 20.3535C18.9546 17.8525 21.624 16.2417 24.4771 16.1987C25.7334 16.1738 26.9385 16.646 27.9951 17.0596C28.8032 17.3765 29.5239 17.6587 30.1143 17.6587C30.6333 17.6587 31.334 17.3877 32.1504 17.0713C33.4375 16.5732 35.0127 15.9639 36.6172 16.1284C37.7144 16.1597 40.8369 16.5513 42.8516 19.415L42.8477 19.4175Z" fill="#FFFFFF" fill-opacity="1.000000" fill-rule="evenodd"/>
	<path id="Vector" d="M70.5269 40.9741L67.499 40.9741L65.8403 35.8926L60.0747 35.8926L58.4946 40.9741L55.5469 40.9741L61.2588 23.6738L64.7871 23.6738L70.5269 40.9741ZM65.3403 33.7607L63.8403 29.2432C63.6816 28.7817 63.3843 27.6948 62.9453 25.9839L62.8921 25.9839C62.7178 26.7197 62.436 27.8066 62.0493 29.2432L60.5762 33.7607L65.3403 33.7607Z" fill="#FFFFFF" fill-opacity="1.000000" fill-rule="nonzero"/>
	<path id="Vector" d="M85.2158 34.5835C85.2158 36.7051 84.6279 38.3818 83.4517 39.6128C82.3984 40.709 81.0903 41.2563 79.5293 41.2563C77.8438 41.2563 76.6333 40.666 75.896 39.4854L75.8428 39.4854L75.8428 46.0571L73 46.0571L73 32.606C73 31.272 72.9639 29.9033 72.8945 28.499L75.3945 28.499L75.5532 30.4766L75.6064 30.4766C76.5547 28.9868 77.9932 28.2432 79.9238 28.2432C81.4331 28.2432 82.6934 28.8242 83.7012 29.9878C84.7119 31.1523 85.2158 32.6841 85.2158 34.5835ZM82.3198 34.6846C82.3198 33.4707 82.04 32.4692 81.4771 31.6816C80.8623 30.8599 80.0371 30.4492 79.0024 30.4492C78.3013 30.4492 77.6641 30.6782 77.0947 31.1294C76.5239 31.584 76.1504 32.1782 75.9761 32.9141C75.8877 33.2573 75.8438 33.5381 75.8438 33.7593L75.8438 35.8389C75.8438 36.7466 76.1294 37.5122 76.6997 38.1377C77.2705 38.7627 78.0117 39.0747 78.9238 39.0747C79.9946 39.0747 80.8276 38.6719 81.4238 37.8682C82.021 37.0635 82.3198 36.0029 82.3198 34.6846Z" fill="#FFFFFF" fill-opacity="1.000000" fill-rule="nonzero"/>
	<path id="Vector" d="M99.9316 34.5835C99.9316 36.7051 99.3438 38.3818 98.1665 39.6128C97.1143 40.709 95.8066 41.2563 94.2451 41.2563C92.5601 41.2563 91.3491 40.666 90.6133 39.4854L90.5601 39.4854L90.5601 46.0571L87.7173 46.0571L87.7173 32.606C87.7173 31.272 87.6812 29.9033 87.6118 28.499L90.1118 28.499L90.2705 30.4766L90.3237 30.4766C91.2705 28.9868 92.709 28.2432 94.6411 28.2432C96.1489 28.2432 97.4092 28.8242 98.4199 29.9878C99.4263 31.1523 99.9316 32.6841 99.9316 34.5835ZM97.0356 34.6846C97.0356 33.4707 96.7544 32.4692 96.1919 31.6816C95.5771 30.8599 94.7544 30.4492 93.7183 30.4492C93.0156 30.4492 92.3799 30.6782 91.8091 31.1294C91.2383 31.584 90.8667 32.1782 90.6919 32.9141C90.605 33.2573 90.5601 33.5381 90.5601 33.7593L90.5601 35.8389C90.5601 36.7466 90.8452 37.5122 91.4131 38.1377C91.9839 38.7612 92.7251 39.0747 93.6396 39.0747C94.7104 39.0747 95.5439 38.6719 96.1396 37.8682C96.7373 37.0635 97.0356 36.0029 97.0356 34.6846Z" fill="#FFFFFF" fill-opacity="1.000000" fill-rule="nonzero"/>
	<path id="Vector" d="M116.385 36.1221C116.385 37.5938 115.861 38.791 114.81 39.7153C113.653 40.7256 112.044 41.23 109.976 41.23C108.067 41.23 106.536 40.8711 105.377 40.1523L106.036 37.8423C107.284 38.5781 108.653 38.9473 110.146 38.9473C111.216 38.9473 112.049 38.7104 112.648 38.2397C113.244 37.7695 113.542 37.1377 113.542 36.3496C113.542 35.6479 113.296 35.0562 112.804 34.5767C112.315 34.0967 111.498 33.6509 110.356 33.2388C107.25 32.1089 105.697 30.4541 105.697 28.2778C105.697 26.856 106.241 25.6899 107.331 24.7822C108.416 23.8735 109.864 23.4199 111.675 23.4199C113.29 23.4199 114.631 23.6943 115.702 24.2417L114.991 26.501C113.991 25.9707 112.86 25.7056 111.595 25.7056C110.595 25.7056 109.813 25.9458 109.253 26.4243C108.78 26.8521 108.543 27.373 108.543 27.9907C108.543 28.6743 108.813 29.2402 109.357 29.6846C109.831 30.0952 110.691 30.54 111.939 31.0195C113.465 31.6191 114.587 32.3198 115.308 33.123C116.027 33.9238 116.385 34.9263 116.385 36.1221Z" fill="#FFFFFF" fill-opacity="1.000000" fill-rule="nonzero"/>
	<path id="Vector" d="M125.784 30.5796L122.651 30.5796L122.651 36.6362C122.651 38.1768 123.203 38.9463 124.31 38.9463C124.817 38.9463 125.239 38.9033 125.572 38.8174L125.651 40.9224C125.091 41.1265 124.354 41.229 123.44 41.229C122.317 41.229 121.44 40.895 120.807 40.228C120.176 39.5596 119.859 38.4395 119.859 36.8647L119.859 30.5767L117.992 30.5767L117.992 28.4966L119.859 28.4966L119.859 26.2129L122.651 25.3911L122.651 28.4966L125.784 28.4966L125.784 30.5796Z" fill="#FFFFFF" fill-opacity="1.000000" fill-rule="nonzero"/>
	<path id="Vector" d="M139.921 34.6343C139.921 36.5518 139.358 38.126 138.236 39.3569C137.059 40.6245 135.496 41.2563 133.548 41.2563C131.67 41.2563 130.176 40.6494 129.061 39.4351C127.946 38.2207 127.389 36.688 127.389 34.8408C127.389 32.9077 127.962 31.3242 129.113 30.0933C130.261 28.8608 131.811 28.2446 133.758 28.2446C135.636 28.2446 137.146 28.8516 138.287 30.0674C139.377 31.2461 139.921 32.7686 139.921 34.6343ZM136.972 34.7236C136.972 33.5732 136.72 32.5864 136.209 31.7637C135.613 30.7681 134.761 30.2715 133.657 30.2715C132.515 30.2715 131.646 30.769 131.05 31.7637C130.54 32.5879 130.288 33.5903 130.288 34.7759C130.288 35.9263 130.54 36.9131 131.05 37.7349C131.665 38.7305 132.524 39.2271 133.632 39.2271C134.717 39.2271 135.569 38.7202 136.184 37.7085C136.708 36.8701 136.972 35.873 136.972 34.7236Z" fill="#FFFFFF" fill-opacity="1.000000" fill-rule="nonzero"/>
	<path id="Vector" d="M149.161 30.9365C148.88 30.8862 148.58 30.8599 148.265 30.8599C147.265 30.8599 146.492 31.228 145.948 31.9648C145.475 32.6152 145.237 33.4365 145.237 34.4287L145.237 40.9741L142.396 40.9741L142.422 32.4277C142.422 30.9902 142.387 29.6812 142.316 28.5005L144.792 28.5005L144.896 30.8872L144.975 30.8872C145.274 30.0669 145.748 29.4067 146.396 28.9111C147.029 28.4653 147.713 28.2432 148.451 28.2432C148.713 28.2432 148.951 28.2612 149.161 28.2939L149.161 30.9365Z" fill="#FFFFFF" fill-opacity="1.000000" fill-rule="nonzero"/>
	<path id="Vector" d="M161.875 34.1465C161.875 34.6431 161.841 35.0615 161.771 35.4033L153.243 35.4033C153.276 36.6357 153.688 37.5786 154.48 38.2285C155.199 38.8096 156.128 39.1006 157.269 39.1006C158.532 39.1006 159.684 38.9043 160.72 38.5107L161.165 40.4346C159.955 40.9492 158.525 41.2056 156.876 41.2056C154.892 41.2056 153.334 40.6362 152.201 39.4985C151.071 38.3608 150.504 36.8335 150.504 34.9175C150.504 33.0361 151.031 31.4697 152.085 30.2202C153.189 28.8867 154.681 28.2197 156.559 28.2197C158.402 28.2197 159.798 28.8867 160.747 30.2202C161.497 31.2798 161.875 32.5903 161.875 34.1465ZM159.164 33.4277C159.183 32.606 158.997 31.896 158.612 31.2969C158.12 30.5259 157.364 30.1411 156.347 30.1411C155.417 30.1411 154.661 30.5166 154.084 31.271C153.61 31.8701 153.329 32.5889 153.243 33.4263L159.164 33.4263L159.164 33.4277Z" fill="#FFFFFF" fill-opacity="1.000000" fill-rule="nonzero"/>
	<path id="Vector" d="M64.4004 13.0303C64.4004 14.5605 63.9297 15.7124 62.9897 16.4858C62.1187 17.1992 60.8813 17.5571 59.2788 17.5571C58.4844 17.5571 57.8042 17.5229 57.2349 17.4556L57.2349 9.09521C57.9775 8.97803 58.7773 8.91846 59.6416 8.91846C61.168 8.91846 62.3188 9.24219 63.0947 9.88965C63.9644 10.6216 64.4004 11.668 64.4004 13.0303ZM62.9268 13.0679C62.9268 12.0762 62.6577 11.3154 62.1187 10.7852C61.5801 10.2563 60.7935 9.99072 59.7573 9.99072C59.3174 9.99072 58.9429 10.0195 58.6323 10.0796L58.6323 16.4351C58.8042 16.4609 59.1187 16.4727 59.5762 16.4727C60.6455 16.4727 61.4707 16.1826 62.0522 15.603C62.6333 15.0234 62.9268 14.1782 62.9268 13.0679Z" fill="#FFFFFF" fill-opacity="1.000000" fill-rule="nonzero"/>
	<path id="Vector" d="M72.2119 14.3672C72.2119 15.3096 71.936 16.082 71.3843 16.6875C70.8057 17.3105 70.0391 17.6211 69.0815 17.6211C68.1587 17.6211 67.4243 17.3232 66.876 16.7256C66.3296 16.1289 66.0562 15.376 66.0562 14.4688C66.0562 13.5195 66.3374 12.7407 66.9028 12.1362C67.4683 11.5317 68.228 11.229 69.1855 11.229C70.1084 11.229 70.8496 11.5269 71.4106 12.1235C71.9443 12.7031 72.2119 13.4521 72.2119 14.3672ZM70.7627 14.4116C70.7627 13.8457 70.6377 13.3608 70.3882 12.9565C70.0947 12.4678 69.6777 12.2236 69.1348 12.2236C68.5737 12.2236 68.147 12.4678 67.8535 12.9565C67.603 13.3608 67.479 13.8535 67.479 14.436C67.479 15.0015 67.604 15.4863 67.8535 15.8906C68.1562 16.3794 68.5776 16.624 69.1216 16.624C69.6548 16.624 70.0737 16.3755 70.375 15.8779C70.6333 15.4658 70.7627 14.9771 70.7627 14.4116Z" fill="#FFFFFF" fill-opacity="1.000000" fill-rule="nonzero"/>
	<path id="Vector" d="M82.6865 11.3535L80.7202 17.4819L79.4399 17.4819L78.6255 14.8208C78.4189 14.1562 78.251 13.4961 78.1201 12.8408L78.0947 12.8408C77.9736 13.5142 77.8052 14.1733 77.5894 14.8208L76.7241 17.4819L75.4292 17.4819L73.5801 11.3535L75.0161 11.3535L75.7266 14.2666C75.8989 14.9561 76.04 15.6123 76.1533 16.2339L76.1787 16.2339C76.2827 15.7217 76.4546 15.0688 76.6973 14.2798L77.5894 11.355L78.728 11.355L79.5825 14.2173C79.7896 14.9155 79.9575 15.5874 80.0869 16.2349L80.1255 16.2349C80.2202 15.6045 80.3628 14.9326 80.5522 14.2173L81.3149 11.355L82.6865 11.355L82.6865 11.3535Z" fill="#FFFFFF" fill-opacity="1.000000" fill-rule="nonzero"/>
	<path id="Vector" d="M89.9307 17.4819L88.5332 17.4819L88.5332 13.9722C88.5332 12.8906 88.1118 12.3496 87.2666 12.3496C86.8521 12.3496 86.5176 12.4976 86.2573 12.7954C86 13.0933 85.8691 13.4443 85.8691 13.8457L85.8691 17.4805L84.4722 17.4805L84.4722 13.105C84.4722 12.5669 84.4546 11.9829 84.4214 11.3511L85.6494 11.3511L85.7148 12.3091L85.7534 12.3091C85.916 12.0117 86.1587 11.7661 86.4775 11.5698C86.856 11.3408 87.2803 11.2251 87.7441 11.2251C88.3306 11.2251 88.8188 11.4097 89.2065 11.7803C89.6895 12.2339 89.9307 12.9111 89.9307 13.811L89.9307 17.4819Z" fill="#FFFFFF" fill-opacity="1.000000" fill-rule="nonzero"/>
	<path id="Vector" d="M93.7842 17.4814L92.3882 17.4814L92.3882 8.5415L93.7842 8.5415L93.7842 17.4814Z" fill="#FFFFFF" fill-opacity="1.000000" fill-rule="nonzero"/>
	<path id="Vector" d="M102.011 14.3672C102.011 15.3096 101.734 16.082 101.183 16.6875C100.604 17.3105 99.8359 17.6211 98.8799 17.6211C97.9561 17.6211 97.2212 17.3232 96.6743 16.7256C96.1279 16.1289 95.8545 15.376 95.8545 14.4688C95.8545 13.5195 96.1357 12.7407 96.7012 12.1362C97.2666 11.5317 98.0264 11.229 98.9824 11.229C99.9062 11.229 100.646 11.5269 101.209 12.1235C101.743 12.7031 102.011 13.4521 102.011 14.3672ZM100.56 14.4116C100.56 13.8457 100.435 13.3608 100.185 12.9565C99.8931 12.4678 99.4746 12.2236 98.9331 12.2236C98.3706 12.2236 97.9438 12.4678 97.6519 12.9565C97.4014 13.3608 97.2773 13.8535 97.2773 14.436C97.2773 15.0015 97.4023 15.4863 97.6519 15.8906C97.9546 16.3794 98.376 16.624 98.9199 16.624C99.4531 16.624 99.8706 16.3755 100.172 15.8779C100.432 15.4658 100.56 14.9771 100.56 14.4116Z" fill="#FFFFFF" fill-opacity="1.000000" fill-rule="nonzero"/>
	<path id="Vector" d="M108.773 17.4819L107.519 17.4819L107.415 16.7759L107.376 16.7759C106.947 17.3389 106.334 17.6211 105.54 17.6211C104.947 17.6211 104.467 17.4351 104.105 17.0659C103.777 16.7305 103.613 16.3135 103.613 15.8179C103.613 15.0693 103.933 14.4985 104.577 14.1035C105.22 13.708 106.124 13.5142 107.288 13.5234L107.288 13.4092C107.288 12.6016 106.854 12.1987 105.982 12.1987C105.363 12.1987 104.816 12.3511 104.344 12.6523L104.06 11.7583C104.644 11.4058 105.365 11.229 106.216 11.229C107.858 11.229 108.683 12.0742 108.683 13.7642L108.683 16.021C108.683 16.6333 108.713 17.1206 108.773 17.4819ZM107.323 15.376L107.323 14.4307C105.781 14.4048 105.011 14.8169 105.011 15.666C105.011 15.9858 105.099 16.2251 105.279 16.3848C105.458 16.5449 105.688 16.624 105.961 16.624C106.268 16.624 106.555 16.5293 106.816 16.3408C107.079 16.1509 107.24 15.9102 107.3 15.6152C107.314 15.5488 107.323 15.4683 107.323 15.376Z" fill="#FFFFFF" fill-opacity="1.000000" fill-rule="nonzero"/>
	<path id="Vector" d="M116.713 17.4814L115.473 17.4814L115.408 16.4976L115.369 16.4976C114.973 17.2461 114.299 17.6206 113.351 17.6206C112.593 17.6206 111.963 17.3306 111.463 16.751C110.963 16.1714 110.713 15.4185 110.713 14.4941C110.713 13.5024 110.984 12.6987 111.528 12.0854C112.055 11.5132 112.7 11.2275 113.468 11.2275C114.312 11.2275 114.903 11.5044 115.239 12.0591L115.265 12.0591L115.265 8.5415L116.664 8.5415L116.664 15.8306C116.664 16.4272 116.68 16.9771 116.713 17.4814ZM115.265 14.897L115.265 13.8755C115.265 13.6987 115.252 13.5557 115.227 13.4463C115.148 13.1187 114.979 12.8433 114.721 12.6211C114.461 12.3984 114.148 12.2866 113.787 12.2866C113.265 12.2866 112.857 12.4883 112.557 12.8926C112.26 13.2969 112.109 13.813 112.109 14.4434C112.109 15.0493 112.252 15.5405 112.539 15.9189C112.841 16.3218 113.25 16.5234 113.76 16.5234C114.219 16.5234 114.585 16.356 114.864 16.019C115.133 15.7085 115.265 15.334 115.265 14.897Z" fill="#FFFFFF" fill-opacity="1.000000" fill-rule="nonzero"/>
	<path id="Vector" d="M128.664 14.3672C128.664 15.3096 128.388 16.082 127.836 16.6875C127.257 17.3105 126.492 17.6211 125.533 17.6211C124.612 17.6211 123.877 17.3232 123.328 16.7256C122.781 16.1289 122.508 15.376 122.508 14.4688C122.508 13.5195 122.789 12.7407 123.354 12.1362C123.92 11.5317 124.68 11.229 125.639 11.229C126.56 11.229 127.302 11.5269 127.862 12.1235C128.396 12.7031 128.664 13.4521 128.664 14.3672ZM127.216 14.4116C127.216 13.8457 127.09 13.3608 126.841 12.9565C126.546 12.4678 126.13 12.2236 125.586 12.2236C125.026 12.2236 124.6 12.4678 124.305 12.9565C124.055 13.3608 123.931 13.8535 123.931 14.436C123.931 15.0015 124.056 15.4863 124.305 15.8906C124.608 16.3794 125.029 16.624 125.573 16.624C126.106 16.624 126.526 16.3755 126.828 15.8779C127.085 15.4658 127.216 14.9771 127.216 14.4116Z" fill="#FFFFFF" fill-opacity="1.000000" fill-rule="nonzero"/>
	<path id="Vector" d="M136.177 17.4819L134.781 17.4819L134.781 13.9722C134.781 12.8906 134.36 12.3496 133.514 12.3496C133.099 12.3496 132.764 12.4976 132.505 12.7954C132.247 13.0933 132.117 13.4443 132.117 13.8457L132.117 17.4805L130.719 17.4805L130.719 13.105C130.719 12.5669 130.703 11.9829 130.669 11.3511L131.896 11.3511L131.961 12.3091L132 12.3091C132.164 12.0117 132.407 11.7661 132.724 11.5698C133.104 11.3408 133.527 11.2251 133.992 11.2251C134.578 11.2251 135.065 11.4097 135.454 11.7803C135.938 12.2339 136.177 12.9111 136.177 13.811L136.177 17.4819Z" fill="#FFFFFF" fill-opacity="1.000000" fill-rule="nonzero"/>
	<path id="Vector" d="M145.582 12.374L144.043 12.374L144.043 15.3511C144.043 16.1074 144.316 16.4858 144.857 16.4858C145.108 16.4858 145.316 16.4648 145.48 16.4219L145.516 17.4556C145.24 17.5571 144.877 17.6074 144.431 17.6074C143.879 17.6074 143.449 17.4438 143.139 17.1162C142.827 16.7886 142.672 16.2373 142.672 15.4639L142.672 12.374L141.753 12.374L141.753 11.3535L142.672 11.3535L142.672 10.23L144.042 9.82715L144.042 11.3521L145.58 11.3521L145.58 12.374L145.582 12.374Z" fill="#FFFFFF" fill-opacity="1.000000" fill-rule="nonzero"/>
	<path id="Vector" d="M152.979 17.4814L151.58 17.4814L151.58 13.9976C151.58 12.8989 151.159 12.3491 150.315 12.3491C149.667 12.3491 149.224 12.6675 148.981 13.3047C148.94 13.4385 148.916 13.6025 148.916 13.7949L148.916 17.4805L147.52 17.4805L147.52 8.5415L148.916 8.5415L148.916 12.2349L148.943 12.2349C149.383 11.5625 150.013 11.2275 150.831 11.2275C151.409 11.2275 151.888 11.4121 152.268 11.7822C152.741 12.2441 152.979 12.9302 152.979 13.8379L152.979 17.4814Z" fill="#FFFFFF" fill-opacity="1.000000" fill-rule="nonzero"/>
	<path id="Vector" d="M160.609 14.1279C160.609 14.3726 160.591 14.5776 160.558 14.7456L156.367 14.7456C156.385 15.3511 156.585 15.813 156.974 16.1328C157.328 16.4185 157.786 16.5615 158.346 16.5615C158.965 16.5615 159.531 16.4653 160.04 16.2715L160.259 17.2183C159.663 17.4702 158.961 17.5962 158.149 17.5962C157.176 17.5962 156.41 17.3169 155.855 16.7578C155.297 16.1987 155.021 15.4487 155.021 14.5078C155.021 13.5835 155.279 12.8135 155.797 12.2002C156.339 11.5449 157.071 11.2173 157.995 11.2173C158.899 11.2173 159.585 11.5449 160.049 12.2002C160.424 12.7202 160.609 13.3638 160.609 14.1279ZM159.276 13.7759C159.287 13.3716 159.195 13.0229 159.005 12.729C158.763 12.3511 158.394 12.1611 157.894 12.1611C157.438 12.1611 157.065 12.3457 156.781 12.7163C156.549 13.0112 156.412 13.3638 156.367 13.7759L159.276 13.7759Z" fill="#FFFFFF" fill-opacity="1.000000" fill-rule="nonzero"/>
</svg>
