<svg width="16.000000" height="16.000000" viewBox="0 0 16 16" fill="none" xmlns="http://www.w3.org/2000/svg" xmlns:xlink="http://www.w3.org/1999/xlink">
	<desc>
			Created with Pixso.
	</desc>
	<defs/>
	<path id="Vector" d="M8 5.6001C7.36328 5.6001 6.75293 5.85303 6.30273 6.30273C5.85303 6.75293 5.6001 7.36328 5.6001 8C5.6001 8.63672 5.85303 9.24707 6.30273 9.69727C6.75293 10.147 7.36328 10.3999 8 10.3999C8.63672 10.3999 9.24707 10.147 9.69727 9.69727C10.147 9.24707 10.3999 8.63672 10.3999 8C10.3999 7.36328 10.147 6.75293 9.69727 6.30273C9.24707 5.85303 8.63672 5.6001 8 5.6001ZM8 4C9.06104 4 10.0781 4.42139 10.8286 5.17139C11.5786 5.92188 12 6.93896 12 8C12 9.06104 11.5786 10.0781 10.8286 10.8286C10.0781 11.5786 9.06104 12 8 12C6.93896 12 5.92188 11.5786 5.17139 10.8286C4.42139 10.0781 4 9.06104 4 8C4 6.93896 4.42139 5.92188 5.17139 5.17139C5.92188 4.42139 6.93896 4 8 4ZM13.2002 3.7998C13.2002 4.06543 13.0947 4.31934 12.9072 4.50732C12.7197 4.69482 12.4653 4.7998 12.2002 4.7998C11.9346 4.7998 11.6807 4.69482 11.4927 4.50732C11.3052 4.31934 11.2002 4.06543 11.2002 3.7998C11.2002 3.53467 11.3052 3.28027 11.4927 3.09277C11.6807 2.90527 11.9346 2.7998 12.2002 2.7998C12.4653 2.7998 12.7197 2.90527 12.9072 3.09277C13.0947 3.28027 13.2002 3.53467 13.2002 3.7998ZM8 1.6001C6.021 1.6001 5.69775 1.60547 4.77686 1.64648C4.14941 1.67578 3.729 1.75977 3.33838 1.91211C2.99121 2.04639 2.74072 2.20703 2.47461 2.47461C2.22412 2.71631 2.03125 3.01172 1.91113 3.33838C1.75928 3.73047 1.67529 4.15039 1.64648 4.77686C1.60498 5.66016 1.6001 5.96875 1.6001 8C1.6001 9.979 1.60547 10.3022 1.64648 11.2231C1.67578 11.8496 1.75977 12.271 1.91113 12.6606C2.04736 13.0088 2.20703 13.2593 2.47266 13.5249C2.74219 13.7935 2.99268 13.9546 3.33691 14.0874C3.73193 14.2402 4.15283 14.3247 4.77686 14.3535C5.66016 14.395 5.96875 14.3999 8 14.3999C9.979 14.3999 10.3022 14.3945 11.2231 14.3535C11.8486 14.3242 12.2705 14.2402 12.6606 14.0889C13.0073 13.9536 13.2593 13.793 13.5249 13.5273C13.7944 13.2578 13.9551 13.0073 14.0879 12.6631C14.2402 12.269 14.3247 11.8472 14.3535 11.2231C14.395 10.3398 14.3999 10.0312 14.3999 8C14.3999 6.021 14.3945 5.69775 14.3535 4.77686C14.3242 4.15137 14.2402 3.729 14.0879 3.33838C13.9673 3.01221 13.7754 2.7168 13.5254 2.47461C13.2837 2.22363 12.9883 2.03125 12.6616 1.91113C12.2695 1.75928 11.8486 1.67529 11.2231 1.64648C10.3398 1.60498 10.0312 1.6001 8 1.6001ZM8 0C10.1738 0 10.4448 0.0078125 11.2974 0.0478516C12.1494 0.0878906 12.7295 0.22168 13.2402 0.419922C13.7681 0.623047 14.2129 0.898438 14.6577 1.34229C15.0645 1.74219 15.3794 2.22607 15.5801 2.75977C15.7778 3.26953 15.9121 3.85059 15.9521 4.70264C15.9897 5.55518 16 5.82617 16 8C16 10.1738 15.9922 10.4448 15.9521 11.2974C15.9121 12.1494 15.7778 12.7295 15.5801 13.2402C15.3799 13.7744 15.0649 14.2583 14.6577 14.6577C14.2578 15.0645 13.7739 15.3789 13.2402 15.5801C12.7305 15.7778 12.1494 15.9121 11.2974 15.9521C10.4448 15.9897 10.1738 16 8 16C5.82617 16 5.55518 15.9922 4.70264 15.9521C3.85059 15.9121 3.27051 15.7778 2.75977 15.5801C2.22607 15.3794 1.74219 15.0649 1.34229 14.6577C0.935547 14.2578 0.620605 13.7739 0.419922 13.2402C0.22168 12.7305 0.0878906 12.1494 0.0478516 11.2974C0.0102539 10.4448 0 10.1738 0 8C0 5.82617 0.0078125 5.55518 0.0478516 4.70264C0.0878906 3.84961 0.22168 3.27051 0.419922 2.75977C0.620117 2.22559 0.935059 1.7417 1.34229 1.34229C1.74219 0.935547 2.22607 0.620605 2.75977 0.419922C3.27051 0.22168 3.84961 0.0878906 4.70264 0.0478516C5.55518 0.0102539 5.82617 0 8 0Z" fill="#666666" fill-opacity="1.000000" fill-rule="nonzero"/>
</svg>
