<svg width="20.000488" height="18.484863" viewBox="0 0 20.0005 18.4849" fill="none" xmlns="http://www.w3.org/2000/svg" xmlns:xlink="http://www.w3.org/1999/xlink">
	<desc>
			Created with Pixso.
	</desc>
	<defs/>
	<path id="Vector" d="M10.001 1.52905C12.3501 -0.580078 15.98 -0.51001 18.2432 1.75708C20.5049 4.0249 20.583 7.63696 18.479 9.99292L9.99902 18.4849L1.521 9.99292C-0.583008 7.63696 -0.503906 4.01904 1.75684 1.75708C4.02197 -0.50708 7.64502 -0.583008 10.001 1.52905ZM16.8271 3.16992C15.3271 1.66797 12.9072 1.60693 11.3369 3.01709L10.002 4.21509L8.66602 3.01807C7.09082 1.60596 4.67578 1.66797 3.17188 3.17188C1.68213 4.66187 1.60693 7.04688 2.97998 8.62305L10 15.6541L17.02 8.62402C18.394 7.04688 18.3188 4.66504 16.8271 3.16992Z" fill="#E21A43" fill-opacity="1.000000" fill-rule="nonzero"/>
</svg>
