<svg width="34.000000" height="24.000000" viewBox="0 0 34 24" fill="none" xmlns="http://www.w3.org/2000/svg" xmlns:xlink="http://www.w3.org/1999/xlink">
	<desc>
			Created with Pixso.
	</desc>
	<defs/>
	<rect id="Payment Method" width="34.000000" height="24.000000" fill="#FFFFFF" fill-opacity="0"/>
	<rect id="Payment Method" width="34.000000" height="24.000000" fill="#FFFFFF" fill-opacity="0"/>
	<rect id="BASE" x="0.500000" y="0.500000" rx="4.000000" width="33.000000" height="23.000000" fill="#FFFFFF" fill-opacity="1.000000"/>
	<rect id="BASE" x="0.500000" y="0.500000" rx="4.000000" width="33.000000" height="23.000000" stroke="#D9D9D9" stroke-opacity="1.000000" stroke-width="1.000000"/>
	<mask id="mask_2_286" fill="white">
		<path id="Left" d="M12.7803 5.02979C9.03613 5.02979 6 8.0293 6 11.73C6 15.4302 9.03613 18.4297 12.7803 18.4297C14.459 18.4297 15.9951 17.8271 17.1787 16.8291C18.3633 17.8271 19.8994 18.4297 21.5771 18.4297C25.3223 18.4297 28.3584 15.4302 28.3584 11.73C28.3584 8.0293 25.3223 5.02979 21.5771 5.02979C19.8994 5.02979 18.3633 5.63232 17.1787 6.63037C15.9951 5.63232 14.459 5.02979 12.7803 5.02979Z" clip-rule="evenodd" fill="" fill-opacity="1.000000" fill-rule="evenodd"/>
	</mask>
	<path id="Left" d="M12.7803 5.02979C9.03613 5.02979 6 8.0293 6 11.73C6 15.4302 9.03613 18.4297 12.7803 18.4297C14.459 18.4297 15.9951 17.8271 17.1787 16.8291C18.3633 17.8271 19.8994 18.4297 21.5771 18.4297C25.3223 18.4297 28.3584 15.4302 28.3584 11.73C28.3584 8.0293 25.3223 5.02979 21.5771 5.02979C19.8994 5.02979 18.3633 5.63232 17.1787 6.63037C15.9951 5.63232 14.459 5.02979 12.7803 5.02979Z" clip-rule="evenodd" fill="#ED0006" fill-opacity="1.000000" fill-rule="evenodd" mask="url(#mask_2_286)"/>
	<path id="Left" d="" fill="#979797" fill-opacity="0.000000" fill-rule="nonzero"/>
	<mask id="mask_2_289" fill="white">
		<path id="Right" d="M17.1787 16.8291C18.3623 17.8271 19.8984 18.4297 21.5771 18.4297C25.3223 18.4297 28.3574 15.4302 28.3574 11.73C28.3574 8.0293 25.3223 5.02979 21.5771 5.02979C19.8984 5.02979 18.3623 5.63232 17.1787 6.63037C18.6367 7.85938 19.5615 9.68799 19.5615 11.73C19.5615 13.772 18.6367 15.6006 17.1787 16.8291Z" clip-rule="evenodd" fill="" fill-opacity="1.000000" fill-rule="evenodd"/>
	</mask>
	<path id="Right" d="M17.1787 16.8291C18.3623 17.8271 19.8984 18.4297 21.5771 18.4297C25.3223 18.4297 28.3574 15.4302 28.3574 11.73C28.3574 8.0293 25.3223 5.02979 21.5771 5.02979C19.8984 5.02979 18.3623 5.63232 17.1787 6.63037C18.6367 7.85938 19.5615 9.68799 19.5615 11.73C19.5615 13.772 18.6367 15.6006 17.1787 16.8291Z" clip-rule="evenodd" fill="#F9A000" fill-opacity="1.000000" fill-rule="evenodd" mask="url(#mask_2_289)"/>
	<path id="Right" d="" fill="#979797" fill-opacity="0.000000" fill-rule="nonzero"/>
	<path id="Middle" d="M17.1797 6.63037C18.6367 7.85938 19.5615 9.68799 19.5615 11.73C19.5615 13.772 18.6367 15.6006 17.1797 16.8291C15.7217 15.6006 14.7969 13.772 14.7969 11.73C14.7969 9.68799 15.7217 7.85938 17.1797 6.63037Z" clip-rule="evenodd" fill="#FF5E00" fill-opacity="1.000000" fill-rule="evenodd"/>
</svg>
