<svg width="16.000000" height="16.000000" viewBox="0 0 16 16" fill="none" xmlns="http://www.w3.org/2000/svg" xmlns:xlink="http://www.w3.org/1999/xlink">
	<desc>
			Created with Pixso.
	</desc>
	<defs/>
	<path id="Vector" d="M14.3911 7.65771C14.3257 6.39844 13.8877 5.18701 13.1328 4.17676C12.9028 4.42432 12.6567 4.65723 12.397 4.87256C11.5977 5.53662 10.7046 6.07861 9.74658 6.48096C9.87988 6.76074 10.0024 7.03223 10.1104 7.28809L10.1104 7.29053C10.1411 7.36182 10.1704 7.43408 10.1982 7.50635C11.4097 7.37061 12.6865 7.41992 13.9238 7.5874C14.0889 7.60938 14.2441 7.63379 14.3911 7.65771ZM6.8833 1.69775C7.6626 2.7959 8.38184 3.93652 9.03662 5.11377C10.0151 4.72803 10.8242 4.2417 11.4751 3.7002C11.7012 3.51367 11.9141 3.31201 12.1118 3.09619C10.9609 2.12793 9.50439 1.59766 8 1.6001C7.62549 1.59961 7.25195 1.63232 6.8833 1.69678L6.8833 1.69775ZM1.80225 6.39746C2.34717 6.38379 2.8916 6.35107 3.43457 6.29932C4.74609 6.18164 6.04639 5.96191 7.32422 5.6416C6.65625 4.48193 5.93555 3.35352 5.16406 2.25977C4.33984 2.66846 3.61279 3.24902 3.0332 3.96289C2.45312 4.67676 2.0332 5.50732 1.80225 6.39746ZM3.02637 12.0278C3.33691 11.5742 3.74463 11.064 4.28662 10.5088C5.44971 9.31689 6.82227 8.38867 8.41113 7.87695L8.46094 7.8623C8.32861 7.57129 8.20459 7.31104 8.08008 7.06641C6.61133 7.49463 5.06396 7.76172 3.52246 7.8999C2.77051 7.96777 2.09619 7.99756 1.6001 8.00244C1.59863 9.46826 2.10254 10.8901 3.02734 12.0278L3.02637 12.0278ZM10.4038 13.9321C10.0957 12.376 9.65869 10.8486 9.09863 9.36475C7.49658 9.94629 6.2207 10.7969 5.23438 11.811C4.83643 12.2129 4.48291 12.6572 4.18066 13.1353C5.28369 13.958 6.62354 14.4019 8 14.3999C8.82373 14.4014 9.64014 14.2427 10.4038 13.9336L10.4038 13.9321ZM11.9023 13.0718C13.1514 12.1118 14.0024 10.7246 14.292 9.17578C14.02 9.10791 13.6753 9.04004 13.2959 8.9873C12.4531 8.86572 11.5977 8.85693 10.752 8.96094C11.228 10.3037 11.6123 11.6777 11.9023 13.0728L11.9023 13.0718ZM8 16C3.58154 16 0 12.4185 0 8C0 3.58154 3.58154 0 8 0C12.4185 0 16 3.58154 16 8C16 12.4185 12.4185 16 8 16Z" fill="#666666" fill-opacity="1.000000" fill-rule="nonzero"/>
</svg>
