<svg width="20.000000" height="20.000000" viewBox="0 0 20 20" fill="none" xmlns="http://www.w3.org/2000/svg" xmlns:xlink="http://www.w3.org/1999/xlink">
	<desc>
			Created with Pixso.
	</desc>
	<defs/>
	<path id="Vector" d="M8.86084 0C13.752 0 17.7217 3.96973 17.7217 8.86084C17.7217 13.7522 13.752 17.7217 8.86084 17.7217C3.96973 17.7217 0 13.7522 0 8.86084C0 3.96973 3.96973 0 8.86084 0ZM8.86084 15.7527C12.668 15.7527 15.7524 12.6682 15.7524 8.86084C15.7524 5.05273 12.668 1.96899 8.86084 1.96899C5.05273 1.96899 1.96924 5.05273 1.96924 8.86084C1.96924 12.6682 5.05273 15.7527 8.86084 15.7527ZM17.2148 15.8225L20 18.6069L18.6069 20L15.8228 17.2148L17.2148 15.8225Z" fill="#333333" fill-opacity="1.000000" fill-rule="nonzero"/>
</svg>
