<svg width="6.570312" height="6.273438" viewBox="0 0 6.57031 6.27344" fill="none" xmlns="http://www.w3.org/2000/svg" xmlns:xlink="http://www.w3.org/1999/xlink">
	<desc>
			Created with Pixso.
	</desc>
	<defs/>
	<path id="Star 1" d="M3.04736 0.172852L2.44336 2.03223C2.40967 2.13525 2.31396 2.20508 2.20557 2.20508L0.250488 2.20508C0.00830078 2.20508 -0.0922852 2.51465 0.103516 2.65723L1.68506 3.80615C1.77295 3.87012 1.80957 3.98291 1.77588 4.08594L1.17188 5.94531C1.09717 6.17578 1.36035 6.36719 1.55664 6.22461L3.13818 5.07568C3.22607 5.01172 3.34424 5.01172 3.43213 5.07568L5.01367 6.22461C5.20996 6.36719 5.47314 6.17578 5.39844 5.94531L4.79443 4.08594C4.76074 3.98291 4.79736 3.87012 4.88525 3.80615L6.4668 2.65723C6.6626 2.51465 6.56201 2.20508 6.31982 2.20508L4.36475 2.20508C4.25635 2.20508 4.16064 2.13525 4.12695 2.03223L3.52295 0.172852C3.44824 -0.0576172 3.12207 -0.0576172 3.04736 0.172852Z" fill="#E21A43" fill-opacity="1.000000" fill-rule="evenodd"/>
</svg>
