<svg width="34.000000" height="24.000000" viewBox="0 0 34 24" fill="none" xmlns="http://www.w3.org/2000/svg" xmlns:xlink="http://www.w3.org/1999/xlink">
	<desc>
			Created with Pixso.
	</desc>
	<defs/>
	<rect id="Payment Method" width="34.000000" height="24.000000" fill="#FFFFFF" fill-opacity="0"/>
	<rect id="Payment Method" width="34.000000" height="24.000000" fill="#FFFFFF" fill-opacity="0"/>
	<rect id="BASE" x="0.500000" y="0.500000" rx="4.000000" width="33.000000" height="23.000000" fill="#FFFFFF" fill-opacity="1.000000"/>
	<rect id="BASE" x="0.500000" y="0.500000" rx="4.000000" width="33.000000" height="23.000000" stroke="#D9D9D9" stroke-opacity="1.000000" stroke-width="1.000000"/>
	<path id="visa-logo" d="M19.9043 9.73389C19.5029 9.73389 19.1602 9.96729 19.1025 10.376C19.1025 11.2505 21.792 11.3667 21.792 13.3501C21.792 14.9253 20.4766 15.9746 18.3594 15.917C17.6729 15.917 16.9297 15.7998 16.2422 15.5088L16.5859 13.875C17.2148 14.167 17.9014 14.3418 18.5879 14.3418C19.1602 14.3418 19.7324 14.1084 19.7324 13.5835C19.7891 13.2339 19.5029 13.0005 18.7598 12.6504C18.0732 12.2998 17.0996 11.7173 17.0996 10.6084C17.0996 9.15039 18.4736 8.1001 20.3623 8.1001C20.9336 8.1001 21.5625 8.21729 22.1357 8.45068L21.792 10.0835C21.2197 9.79248 20.5332 9.67529 19.9043 9.73389ZM8.69043 15.8584L10.75 15.8584L13.8389 8.2749L11.8369 8.2749L9.77832 13.4087L8.97656 9.0332C8.91895 8.62598 8.57617 8.2749 8.11816 8.2749L4.7998 8.2749L4.7998 8.5083C5.48633 8.62598 6.11621 8.8584 6.6875 9.15039C6.91699 9.2666 7.07227 9.51367 7.14551 9.79248L8.69043 15.8584ZM14.9844 15.8584L13.0391 15.8584L14.6406 8.2749L16.5859 8.2749L14.9844 15.8584ZM28.5996 15.8584L27.0557 8.2749L25.3965 8.2749C25.0527 8.2749 24.709 8.5083 24.5947 8.8584L21.7344 15.8584L23.7373 15.8584L24.1367 14.7505L26.5977 14.7505L26.8262 15.8584L28.5996 15.8584ZM26.2539 13.1753L25.6826 10.3174L24.6523 13.1753L26.2539 13.1753Z" clip-rule="evenodd" fill="#172B85" fill-opacity="1.000000" fill-rule="evenodd"/>
</svg>
